<?xml version="1.0" encoding="utf-8"?>
<!-- Generator: Adobe Illustrator 22.0.1, SVG Export Plug-In . SVG Version: 6.00 Build 0)  -->
<svg version="1.1" id="Layer_1" xmlns="http://www.w3.org/2000/svg" xmlns:xlink="http://www.w3.org/1999/xlink" x="0px" y="0px"
	 viewBox="0 0 100 100" style="enable-background:new 0 0 100 100;" xml:space="preserve">
<style type="text/css">
	.st0{fill:#FFFFFF;}
	.st1{fill:#5236A4;}
	.st2{fill:#C7FC06;}
	.st3{fill:#00FFCE;}
</style>
<g>
	<g>
		<path class="st0" d="M96.288,53.128c0,13.108-11.646,23.734-26.012,23.734S44.264,66.236,44.264,53.128S70.276,4.411,70.276,4.411
			S96.288,40.021,96.288,53.128z"/>
		<path class="st1" d="M70.276,78.875c-15.453,0-28.025-11.55-28.025-25.746C42.251,39.52,67.573,4.7,68.65,3.225L70.276,1
			L71.9,3.225C72.978,4.7,98.3,39.52,98.3,53.129C98.3,67.325,85.729,78.875,70.276,78.875z M70.276,7.857
			c-7.963,11.215-23.999,35.764-23.999,45.271c0,11.977,10.766,21.721,23.999,21.721c13.234,0,24-9.744,24-21.721
			C94.275,43.618,78.239,19.071,70.276,7.857z"/>
	</g>
	<g>
		<path class="st2" d="M70.275,68.987c-9.583,0-17.381-7.114-17.381-15.859c0-5.274,8.107-20.048,17.381-34.022
			C79.55,33.08,87.657,47.855,87.657,53.128C87.657,61.873,79.86,68.987,70.275,68.987z"/>
	</g>
	<g>
		<path class="st0" d="M70.188,66.661c0,16.749-14.881,30.326-33.238,30.326S3.712,83.41,3.712,66.661S36.95,4.412,36.95,4.412
			S70.188,49.912,70.188,66.661z"/>
		<path class="st1" d="M36.95,99C17.513,99,1.7,84.493,1.7,66.661c0-17.208,32.252-61.557,33.625-63.436L36.95,1l1.625,2.225
			C39.948,5.104,72.2,49.453,72.2,66.661C72.2,84.493,56.387,99,36.95,99z M36.95,7.867C30.323,17.211,5.725,52.83,5.725,66.661
			c0,15.612,14.007,28.314,31.225,28.314s31.225-12.702,31.225-28.314C68.175,52.826,43.577,17.21,36.95,7.867z"/>
	</g>
	<g>
		<path class="st3" d="M36.95,86.925c-12.246,0-22.209-9.09-22.209-20.264c0-6.738,10.359-25.618,22.209-43.472
			C48.8,41.044,59.16,59.923,59.16,66.661C59.159,77.834,49.196,86.925,36.95,86.925z"/>
	</g>
	<g>
		<path class="st1" d="M27.081,79.031c-3.498-3.192-5.424-7.45-5.424-11.99s1.926-8.798,5.424-11.99l2.713,2.973
			c-2.652,2.42-4.112,5.622-4.112,9.017s1.46,6.597,4.112,9.017L27.081,79.031z"/>
	</g>
</g>
</svg>
