<svg xmlns="http://www.w3.org/2000/svg" viewBox="0 0 500 500" id="cardiology"><circle cx="250" cy="214.6" r="188.1" fill="#81cc94"></circle><circle cx="250" cy="214.6" r="188.1" fill="#fff" opacity=".39"></circle><path fill="#fff" d="M52.9 439.9H131v4.6H52.9z"></path><path fill="#d8d8d8" d="M137 454.5c-.3.1-.7.1-1 .1H47.9c-.4 0-.7 0-1-.1h-1.3v26.7h100.1v-26.7H137zm-4.6 22.1c-4.8 0-8.7-3.9-8.7-8.7 0-4.8 3.9-8.7 8.7-8.7 4.8 0 8.7 3.9 8.7 8.7 0 4.8-3.9 8.7-8.7 8.7z"></path><path fill="#fff" d="M369 439.9h78.1v4.6H369z"></path><path fill="#d8d8d8" d="M453.1 454.5c-.3.1-.7.1-1 .1H364c-.4 0-.7 0-1-.1h-8.7v26.7h100.1v-26.7h-1.3zm-85.5 22.1c-4.8 0-8.7-3.9-8.7-8.7 0-4.8 3.9-8.7 8.7-8.7 4.8 0 8.7 3.9 8.7 8.7 0 4.8-3.9 8.7-8.7 8.7z"></path><path fill="#ffdebd" d="M61.7 220.7c-.1.1-.1.2-.2.3l-10.7 18.6.3-29.4 10.3-15c9.8 11.1.8 24.9.3 25.5z"></path><path fill="#ffdebd" d="M122.7 402c-3 8.1-5.2 17.4-6.5 27.9H68.3c.2-2.1.3-4.1.2-5.8-.7-17.6-9.9-39.5-10.3-40.4-.1-.2-.2-.4-.3-.5l-14.3-24.9c-2.1-3.6-3.6-7.7-4.3-12.2l-15.5-96.5c0-.1 0-.2-.1-.3-.2-.8-.1-1.9-.1-2.6l5.4-66.4c0-.2.1-.3.3-.4.3-.2.6 0 .6 0 11.9 7.4 11.3 23.2 11.3 23.4v.2l-.1 5.3-.5 50c0 .3 0 .5.1.8v.2c0 .2.1.3.1.5 0 .1.1.2.1.3.1.2.1.3.2.5 0 .1.1.2.1.2v.1l5.4 9.4c1.4 2.4 4.4 3.2 6.8 1.8.8-.5 1.4-1.1 1.8-1.9 0 3.3.7 6.4 2.2 9.1l25.4 53c1.2 2.5 4.2 3.5 6.7 2.3 2.5-1.2 3.5-4.2 2.3-6.7l-25.5-53.1c0-.1-.1-.2-.2-.3-1.2-2.1-1.4-4.9-.5-7.7.8-2.7 2.4-5 4.1-5.9 2.4-1.2 5.5-1.4 7.8-.4 1.4.6 2.2 1.5 2.7 2.9.1.3.2.5.3.8l15.9 32.5c.5 1.1 1 2.1 1.3 2.9 0 .1.1.2.1.3 1.5 3.6 6.7 12.9 15.8 28.3 1.7 2.9 4 5.6 6.8 8.2 7.1 6.7 13.9 34.2 2.3 65.1zM449 239.7 438.4 221c0-.1-.1-.2-.2-.3-.4-.6-9.5-14.4.3-25.5l10.2 15.1.3 29.4z"></path><path fill="#ffdebd" d="M476.6 246.9c0 .5-.1 1.5-.2 2.6L460.9 346c-.7 4.4-2.2 8.5-4.3 12.2l-14.3 24.9-.3.6c-.4.9-9.4 22.9-10.3 40.4-.1 1.7 0 3.7.2 5.8h-48.5c-1.3-10.5-3.5-19.8-6.5-27.9-11.7-30.9-4.8-58.4 2.2-65 2.7-2.4 4.9-5.2 6.8-8.2 9-15.2 14.3-24.7 15.8-28.3.2-.5.5-1.1.7-1.6.3-.6.6-1.2.8-1.8l15.8-32.4c.1-.2.2-.5.3-.8.4-1.4 1.3-2.3 2.7-2.9 2.2-1 5.4-.8 7.8.4 1.8.9 3.5 3.2 4.3 5.9.8 2.8.6 5.6-.6 7.7-.1.1-.1.2-.2.3l-25.5 53.1c-1.2 2.5-.1 5.5 2.3 6.7 2.5 1.2 5.5.1 6.7-2.3l25.4-52.9c1.6-2.9 2.4-6.2 2.3-9.7.4 1 1.1 1.8 2.1 2.4 2.4 1.4 5.5.5 6.8-1.8l5.4-9.4c.4-.8.7-1.7.7-2.5l-.5-50-.1-5.3v-.2c0-.2-.7-16 11.4-23.4.2-.1.4-.1.6 0 .3.1.3.3.3.5l5.4 66.4z"></path><path d="M391 429.9s-21.9-51.9-10.9-72.3c2-3.7 5.2-13.5 8.8-19.4 15.4-25.3 34.6-69.2 34.6-69.2s2.3-14.2 10.5-1.8v-5.1l-15.9-10.4-10.1 28.1-19 33.1-22.7 37.1v43.2l17.1 36.7h7.6zM442.6 201l1.5 29.8 5 8.8-.3-29.3zM108.7 429.9s21.9-51.9 10.9-72.3c-2-3.7-5.2-13.5-8.8-19.4C95.3 312.9 76.1 269 76.1 269s-2.3-14.2-10.5-1.8v-5.1l15.9-10.4 10.1 28.1 19 33.1 22.7 37.1v43.2l-17.1 36.7h-7.5z" opacity=".19"></path><path d="m57.1 201-1.5 29.8-5.1 8.8.3-29.3z" opacity=".3"></path><path d="M354.3 454.5h37.3v26.7h-37.3zM110.3 453.3h37.3V480h-37.3z" opacity=".18"></path><path fill="#ff8d8d" d="M250.1 273.2 125.8 148.9C97 120 97 73.3 125.8 44.4c28.8-28.8 75.6-28.8 104.4 0l19.9 17.9 19.6-17.6c28.8-28.8 75.6-28.8 104.4 0s28.8 75.6 0 104.4l-124 124.1z"></path><path fill="#485eff" d="M369 439.9h15.5v4.6H369z" opacity=".3"></path><path fill="#5e5e84" d="M150.7 444.5H141v-9.6c0-2.8-2.2-5-5-5h-9.4c1.2-9.2 3.1-17.3 5.8-24.3 13-34.3 5.6-66.1-4.8-76-2.1-1.9-3.7-3.9-5-6-11.2-18.9-14.3-25-15.1-26.9-.5-1.5-1.2-2.8-1.8-4L90 260.5c-1.3-4-4.2-7.1-8.2-8.8-5-2.1-11.2-1.9-16.3.7-4.2 2.2-7.6 6.6-9.1 11.9-.2.7-.4 1.4-.5 2.1-.1-.3-.2-.6-.4-.9l-4-6.9L70.2 226c5.2-7.7 11.1-25.6-2.8-39.3l-.2-.2c-1.9-1.7-4.5-2.5-7-2.2s-4.7 1.7-6.1 3.7l-3.7 5.5C48.9 186.4 45 177 35.3 171c-3.2-2-7.1-2.1-10.4-.4-3.3 1.7-5.4 4.9-5.7 8.6l-5.4 66.4c-.1 1.3-.2 3.3.3 5.4l15.5 96.4c.9 5.7 2.8 10.9 5.5 15.6l14.1 24.6c1 2.5 8.8 21.9 9.4 36.7.1 1.5 0 3.4-.3 5.4H47.9c-2.8 0-5 2.2-5 5v9.6h-2.3c-2.8 0-5 2.2-5 5V486c0 2.8 2.2 5 5 5h110.1c2.8 0 5-2.2 5-5v-36.7c0-2.6-2.2-4.8-5-4.8zM51.1 210.2l10.3-15c9.8 11.1.8 24.9.3 25.5-.1.1-.1.2-.2.3l-10.7 18.6.3-29.4zm7.1 173.5c-.1-.2-.2-.4-.3-.5l-14.3-24.9c-2.1-3.6-3.6-7.7-4.3-12.2l-15.5-96.5c0-.1 0-.2-.1-.3-.2-.8-.1-1.9-.1-2.6l5.4-66.4c0-.2.1-.3.3-.4.3-.2.6 0 .6 0 11.9 7.4 11.3 23.2 11.3 23.4v.2l-.1 5.3-.5 50c0 .3 0 .5.1.8v.2c0 .2.1.3.1.5 0 .1.1.2.1.3.1.2.1.3.2.5 0 .1.1.2.1.2v.1l5.4 9.4c1.4 2.4 4.4 3.2 6.8 1.8.8-.5 1.4-1.1 1.8-1.9 0 3.3.7 6.4 2.2 9.1l25.4 53c1.2 2.5 4.2 3.5 6.7 2.3 2.5-1.2 3.5-4.2 2.3-6.7l-25.5-53.1c0-.1-.1-.2-.2-.3-1.2-2.1-1.4-4.9-.5-7.7.8-2.7 2.4-5 4.1-5.9 2.4-1.2 5.5-1.4 7.8-.4 1.4.6 2.2 1.5 2.7 2.9.1.3.2.5.3.8l15.9 32.5c.5 1.1 1 2.1 1.3 2.9 0 .1.1.2.1.3 1.5 3.6 6.7 12.9 15.8 28.3 1.7 2.9 4 5.6 6.8 8.2 7.1 6.7 13.9 34.2 2.3 65.1-3 8.1-5.2 17.4-6.5 27.9H68.3c.2-2.1.3-4.1.2-5.8-.7-17.6-9.9-39.5-10.3-40.4zm-5.3 56.2H131v4.6H52.9v-4.6zm92.8 41.3H45.6v-26.7h1.3c.3.1.6.1 1 .1H136c.3 0 .7 0 1-.1h8.7v26.7z"></path><path fill="#5e5e84" d="M132.4 459.2c-4.8 0-8.7 3.9-8.7 8.7 0 4.8 3.9 8.7 8.7 8.7 4.8 0 8.7-3.9 8.7-8.7 0-4.8-3.9-8.7-8.7-8.7zm0 10c-.7 0-1.3-.6-1.3-1.3 0-.7.6-1.3 1.3-1.3.7 0 1.3.6 1.3 1.3 0 .7-.6 1.3-1.3 1.3zm354.1-223.4-5.4-66.4c-.3-3.7-2.4-6.9-5.7-8.6-3.4-1.7-7.2-1.5-10.4.4-9.8 6-13.7 15.5-15.2 22.7l-3.9-5.7c-1.4-2-3.6-3.4-6.1-3.7s-5.1.5-7 2.2l-.2.2c-14 13.7-8 31.6-2.8 39.3l18.8 32.7-3.9 6.7c-.3.5-.4.9-.5 1.4-.1-.9-.3-1.8-.6-2.6-1.6-5.3-5-9.8-9.3-12-5.1-2.6-11.3-2.8-16.3-.7-4 1.7-6.8 4.8-8.2 8.8l-15.7 32.2c0 .1-.1.2-.1.3-.2.5-.5 1.1-.7 1.6-.3.7-.6 1.3-.9 2-.7 1.8-3.7 7.7-15.1 27-1.4 2.2-3 4.2-5.1 6.1-10.3 9.8-17.7 41.6-4.7 75.9 2.6 7 4.6 15.2 5.8 24.3H364c-2.8 0-5 2.2-5 5v9.6h-9.7c-2.8 0-5 2.2-5 5v36.7c0 2.8 2.2 5 5 5h110.1c2.8 0 5-2.2 5-5v-36.7c0-2.8-2.2-5-5-5h-2.3v-9.6c0-2.8-2.2-5-5-5h-10.2c-.2-2-.3-3.9-.3-5.4.7-14.7 8.4-34.2 9.4-36.7l14.1-24.6c2.7-4.7 4.6-10 5.5-15.6l15.5-96.6c.4-1.9.5-3.5.4-5.2zM438.4 221c0-.1-.1-.2-.2-.3-.4-.6-9.5-14.4.3-25.5l10.2 15.1.3 29.4-10.6-18.7zm14.7 233.5h1.3v26.7H354.3v-26.7h8.7c.3.1.6.1 1 .1h88.1c.3 0 .7 0 1-.1zm-6-14.6v4.6H369v-4.6h78.1zm29.3-190.4L460.9 346c-.7 4.4-2.2 8.5-4.3 12.2l-14.3 24.9-.3.6c-.4.9-9.4 22.9-10.3 40.4-.1 1.7 0 3.7.2 5.8h-48.5c-1.3-10.5-3.5-19.8-6.5-27.9-11.7-30.9-4.8-58.4 2.2-65 2.7-2.4 4.9-5.2 6.8-8.2 9-15.2 14.3-24.7 15.8-28.3.2-.5.5-1.1.7-1.6.3-.6.6-1.2.8-1.8l15.8-32.4c.1-.2.2-.5.3-.8.4-1.4 1.3-2.3 2.7-2.9 2.2-1 5.4-.8 7.8.4 1.8.9 3.5 3.2 4.3 5.9.8 2.8.6 5.6-.6 7.7-.1.1-.1.2-.2.3l-25.5 53.1c-1.2 2.5-.1 5.5 2.3 6.7 2.5 1.2 5.5.1 6.7-2.3l25.4-52.9c1.6-2.9 2.4-6.2 2.3-9.7.4 1 1.1 1.8 2.1 2.4 2.4 1.4 5.5.5 6.8-1.8l5.4-9.4c.4-.8.7-1.7.7-2.5l-.5-50-.1-5.3v-.2c0-.2-.7-16 11.4-23.4.2-.1.4-.1.6 0 .3.1.3.3.3.5l5.4 66.4c0 .5-.1 1.5-.2 2.6z"></path><path fill="#5e5e84" d="M367.6 459.2c-4.8 0-8.7 3.9-8.7 8.7 0 4.8 3.9 8.7 8.7 8.7 4.8 0 8.7-3.9 8.7-8.7 0-4.8-3.9-8.7-8.7-8.7zm0 10c-.7 0-1.3-.6-1.3-1.3 0-.7.6-1.3 1.3-1.3.7 0 1.3.6 1.3 1.3 0 .7-.6 1.3-1.3 1.3zM264.1 221c2.7.8 5.4-.7 6.2-3.4l14.3-48.9 143.8-4.9-147.6-5c-2.1-.1-4.1 1.3-4.8 3.4v.2l-9.4 32.2-2.4-13.2-3.1-16.9-3.2-16.9-13-67.7c-.4-1.9-1.9-3.5-3.9-4-2.7-.6-5.3 1.2-5.9 3.9L219 157.2l-6.3 13.3-8-9.9c-.6-.7-1.3-1.3-2.3-1.6-2.6-.9-5.5.5-6.4 3.1l-3.9 11.4-10.4-53.7c-.4-1.9-1.8-3.5-3.8-3.9-2.7-.6-5.4 1.1-6 3.8l-8.8 39.3-83.1 4.8 87.2 5c2.2.1 4.3-1.4 4.8-3.6l.1-.3 4.4-19.6 9.4 48.5a4.9 4.9 0 0 0 3.3 3.8c2.6.9 5.5-.5 6.4-3.1l7.1-20.5 7.3 9c.5.6 1 1 1.7 1.4 2.5 1.2 5.5.1 6.7-2.4l10-21c.2-.4.3-.7.4-1.1l10.9-53.4 8.3 43 3.2 16.9 3.1 16.9 6.3 33.9c.3 1.7 1.6 3.3 3.5 3.8zm-79.2 189.7c-3-1.1-6.1-2.3-9.1-3.5-2.5-1.1-5.5.1-6.5 2.7-1.1 2.5.1 5.5 2.7 6.5 3.1 1.3 6.4 2.6 9.6 3.7.6.2 1.1.3 1.7.3 2 0 4-1.3 4.7-3.3.9-2.6-.5-5.4-3.1-6.4zm86.4 10.1c-3.2.4-6.5.6-9.7.8-2.8.2-4.9 2.5-4.7 5.3.2 2.7 2.4 4.7 5 4.7h.3c3.4-.2 6.8-.5 10.2-.9 2.7-.3 4.7-2.8 4.4-5.5-.3-2.7-2.8-4.6-5.5-4.4zm28.7-5.3c-3.1.8-6.3 1.6-9.5 2.3-2.7.6-4.4 3.2-3.8 5.9.5 2.3 2.6 4 4.9 4 .3 0 .7 0 1-.1 3.3-.7 6.7-1.5 10-2.4 2.7-.7 4.3-3.5 3.5-6.1-.7-2.7-3.4-4.3-6.1-3.6zm-141.8-16.7c-2.8-1.5-5.7-3.2-8.4-4.9-2.4-1.4-5.4-.7-6.9 1.7-1.4 2.4-.7 5.4 1.7 6.9 2.9 1.8 5.9 3.5 8.9 5.1.8.4 1.6.6 2.4.6 1.8 0 3.5-.9 4.4-2.6 1.3-2.5.4-5.5-2.1-6.8zm169.4 7c-3 1.3-6 2.5-9 3.7-2.6 1-3.9 3.9-2.9 6.4.8 2 2.7 3.2 4.7 3.2.6 0 1.2-.1 1.8-.3 3.2-1.2 6.4-2.5 9.5-3.9 2.5-1.1 3.7-4.1 2.6-6.6-1.2-2.5-4.2-3.6-6.7-2.5zm22.3 0c3-1.7 5.9-3.5 8.8-5.3 2.3-1.5 3-4.6 1.5-6.9s-4.6-3-6.9-1.5c-2.7 1.7-5.5 3.4-8.4 5-2.4 1.4-3.2 4.4-1.9 6.8.9 1.6 2.6 2.5 4.4 2.5.9 0 1.7-.2 2.5-.6zm-136.8 12.7c-3.2-.6-6.4-1.3-9.5-2.1-2.7-.7-5.4 1-6.1 3.7-.7 2.7 1 5.4 3.7 6.1 3.3.8 6.7 1.6 10 2.2.3.1.6.1 1 .1 2.3 0 4.4-1.7 4.9-4 .4-2.9-1.3-5.5-4-6zm29 3.3c-3.2-.1-6.5-.3-9.7-.6-2.7-.2-5.2 1.8-5.4 4.5-.2 2.8 1.8 5.2 4.5 5.4 3.4.3 6.8.5 10.2.7h.2c2.7 0 4.9-2.1 5-4.8.1-2.7-2.1-5-4.8-5.2zM70.3 109.2c.8.5 1.7.8 2.7.8 1.7 0 3.3-.8 4.2-2.3 1.7-2.7 3.5-5.5 5.4-8.1 1.6-2.3 1-5.4-1.2-7-2.3-1.6-5.4-1-7 1.2-1.9 2.8-3.9 5.7-5.7 8.5-1.4 2.4-.7 5.5 1.6 6.9zm20.4-23.3c1.4 0 2.8-.6 3.8-1.8 2.1-2.5 4.3-4.9 6.5-7.3 1.9-2 1.8-5.2-.2-7.1s-5.2-1.8-7.1.2c-2.3 2.5-4.6 5-6.8 7.6-1.8 2.1-1.5 5.3.6 7 .9 1 2.1 1.4 3.2 1.4zm-43.3 78.5c.5.1.9.2 1.4.2 2.2 0 4.2-1.4 4.8-3.6.9-3.1 1.8-6.3 2.9-9.3.9-2.6-.5-5.5-3.2-6.3-2.6-.9-5.5.5-6.3 3.2-1.1 3.2-2.1 6.5-3 9.8-.8 2.5.7 5.3 3.4 6zm9.4-28.4c.7.3 1.3.4 2 .4 1.9 0 3.7-1.1 4.6-3 1.3-3 2.7-5.9 4.2-8.8 1.2-2.5.2-5.5-2.2-6.7-2.5-1.2-5.5-.2-6.7 2.2-1.5 3-3 6.1-4.4 9.3-1.1 2.5 0 5.5 2.5 6.6zm372-18.1c.9 1.7 2.6 2.6 4.4 2.6.8 0 1.6-.2 2.4-.6 2.4-1.3 3.3-4.4 2-6.8-1.6-3-3.4-6-5.1-8.9-1.4-2.4-4.5-3.1-6.9-1.6-2.4 1.4-3.1 4.5-1.6 6.9 1.6 2.7 3.2 5.6 4.8 8.4zm8.6 17.6c1.3 3 2.5 6 3.6 9.1.8 2 2.7 3.2 4.7 3.2.6 0 1.2-.1 1.8-.3 2.6-1 3.9-3.9 2.9-6.4-1.2-3.2-2.5-6.4-3.8-9.5-1.1-2.5-4-3.7-6.6-2.6-2.5 1-3.7 3.9-2.6 6.5zm-24.5-42.1c1 1.3 2.5 2 4 2 1 0 2.1-.3 3-1 2.2-1.7 2.6-4.8 1-7-2-2.7-4.2-5.4-6.3-8-1.8-2.1-4.9-2.4-7-.7-2.1 1.8-2.4 4.9-.7 7 2 2.5 4.1 5.1 6 7.7zm34.1 69.7c.8 3.1 1.6 6.3 2.3 9.5.5 2.3 2.6 3.9 4.9 3.9.4 0 .7 0 1.1-.1 2.7-.6 4.4-3.3 3.8-6-.7-3.3-1.5-6.7-2.4-9.9-.7-2.7-3.5-4.2-6.1-3.5-2.7.7-4.3 3.4-3.6 6.1zM371.1 95c.5 2.4 2.6 4 4.9 4 .3 0 .7 0 1-.1 2.7-.6 4.5-3.2 3.9-5.9-.9-4.5-2.2-8.9-3.7-13-1-2.6-3.9-3.9-6.4-2.9-2.6 1-3.9 3.9-2.9 6.4 1.3 3.7 2.4 7.5 3.2 11.5zM309 49.9c.3-.1 30.2-5.6 48.8 16.3 1 1.2 2.4 1.8 3.8 1.8 1.1 0 2.3-.4 3.2-1.2 2.1-1.8 2.4-4.9.6-7-22.5-26.4-56.9-19.9-58.4-19.7-2.7.5-4.5 3.2-3.9 5.9.5 2.7 3.2 4.4 5.9 3.9z"></path></svg>