<svg xmlns="http://www.w3.org/2000/svg" xmlns:xlink="http://www.w3.org/1999/xlink" width="121" height="121" viewBox="0 0 121 121"><defs><linearGradient id="a" x1="0.5" x2="0.5" y2="1" gradientUnits="objectBoundingBox"><stop offset="0" stop-color="#98f5d2"/><stop offset="1" stop-color="#45e0a4"/></linearGradient><filter id="b" x="0" y="0" width="121" height="121" filterUnits="userSpaceOnUse"><feOffset dy="12" input="SourceAlpha"/><feGaussianBlur stdDeviation="13" result="c"/><feFlood flood-color="#28d68b" flood-opacity="0.278"/><feComposite operator="in" in2="c"/><feComposite in="SourceGraphic"/></filter><clipPath id="d"><rect width="17.302" height="20.908" fill="#fff"/></clipPath></defs><g transform="translate(-321 -7499)"><g transform="matrix(1, 0, 0, 1, 321, 7499)" filter="url(#b)"><circle cx="21.5" cy="21.5" r="21.5" transform="translate(39 27)" fill="url(#a)"/></g><g transform="translate(-771.15 6971.546)"><g transform="translate(1144 566)"><g transform="translate(0 0)" clip-path="url(#d)"><path d="M1161.234,569.259a11.546,11.546,0,0,1-8.593-3.259,11.544,11.544,0,0,1-8.592,3.259c0,5.84-1.208,14.2,8.592,17.6,9.8-3.4,8.593-11.762,8.593-17.6Zm-9.3,10.276-2.863-2.863,1.282-1.282,1.581,1.581,3.005-3,1.281,1.282Zm0,0" transform="translate(-1144.002 -566)" fill="#fff"/></g></g></g></g></svg>