<svg width="110" height="140" viewBox="0 0 110 140" xmlns="http://www.w3.org/2000/svg" xmlns:xlink="http://www.w3.org/1999/xlink">
    <defs>
        <linearGradient x1="50%" y1="0%" x2="50%" y2="100%" id="a">
            <stop stop-color="#FFE51E" offset="0%"/>
            <stop stop-color="#FFC60D" offset="100%"/>
        </linearGradient>
        <linearGradient x1="28.721%" y1="36.653%" x2="57.213%" y2="64.168%" id="c">
            <stop stop-color="#FFE4A7" offset="0%"/>
            <stop stop-color="#FB8C11" offset="100%"/>
        </linearGradient>
        <linearGradient x1="50%" y1="0%" x2="50%" y2="100%" id="e">
            <stop stop-color="#FFE0F0" offset="0%"/>
            <stop stop-color="#F464A0" offset="100%"/>
        </linearGradient>
        <linearGradient x1="50%" y1="0%" x2="50%" y2="100%" id="f">
            <stop stop-color="#FFFBE4" offset="0%"/>
            <stop stop-color="#FFCE2F" offset="100%"/>
        </linearGradient>
        <linearGradient x1="34.367%" y1="9.02%" x2="55.299%" y2="93.501%" id="g">
            <stop stop-color="#FFE4A7" offset="0%"/>
            <stop stop-color="#FB8C11" offset="100%"/>
        </linearGradient>
        <path id="b" d="M0 0h35.566v20.297H0z"/>
    </defs>
    <g fill="none" fill-rule="evenodd">
        <path d="M0 0h110v140H0z"/>
        <path d="M79.625 56.178c1.457 2.182 1.115 2.847 2.396 3.806 2.434 1.82 4.637.097 7.165 1.385 3.662 1.867 3.917 7.97 3.983 9.56.059 1.396.348 8.315-3.664 10.356-2.674 1.36-6.072-.049-7.49-.637-2.606-1.08-2.956-2.244-6.532-3.824-1.674-.74-2.837-1.254-4.461-1.434-3.871-.429-4.993 1.64-7.488 1.115-4.165-.875-5.798-7.638-5.973-8.364-1.207-4.993.777-8.743 1.474-9.759 2.149-3.135 3.107.743 7.346-2.719 3.12-2.548 1.575-4.904 3.408-5.287 2.927-.61 7.913 2.924 9.836 5.802" fill="#181818"/>
        <path d="M75.303 63.527s5.09-3.407 2.253-8.177c-2.836-4.769-8.416-7.015-13.592-3.942-5.176 3.074-8.186 12.478.36 13.633 3.39.459 10.98-1.514 10.98-1.514" fill="#181818"/>
        <path d="m85.86 139.612 2.805 3.678c.47.777.274 1.75-.428 2.124l-.81.432c-.657.35-1.513.042-1.935-.697l-2.975-3.846 3.343-1.691z" fill="#FFF"/>
        <path d="m83.126 141.441 2.68 3.465c.012.014.022.03.032.047.31.546.939.789 1.402.543l.81-.433a.89.89 0 0 0 .433-.563 1.295 1.295 0 0 0-.147-.987l-2.592-3.397-2.618 1.325zm3.713 4.949c-.647 0-1.297-.371-1.678-1.018l-2.958-3.825a.395.395 0 0 1 .135-.598l3.343-1.693a.397.397 0 0 1 .495.115l2.805 3.677a2.09 2.09 0 0 1 .269 1.663 1.685 1.685 0 0 1-.825 1.054l-.811.432a1.633 1.633 0 0 1-.775.193z" fill="#000"/>
        <path d="M57.263 113.353s.78 7.44 1.931 13.244c.918 4.634.336 10.686 1.734 17.45a776.863 776.863 0 0 0 1.093 5.154l4.245.122c.301-.535 2.033-10.165.288-18.283-1.03-4.795 1.836-11.488 1.125-15.846-.562-3.447-2.098-13.47-2.098-13.47l-7.556.046s-.854 5.625-.762 11.583" fill="#181818"/>
        <path d="m62.345 148.812 3.643.104c.42-1.582 1.773-10.377.178-17.792-.562-2.616-.008-5.729.529-8.74.47-2.645.917-5.143.592-7.126-.498-3.05-1.773-11.35-2.046-13.134l-6.87.042c-.177 1.294-.786 6.135-.71 11.163.043.406.817 7.606 1.923 13.191.415 2.096.53 4.498.65 7.041.148 3.135.316 6.688 1.085 10.405.345 1.67.848 4.02 1.026 4.846m3.922.908h-.012l-4.244-.122a.397.397 0 0 1-.368-.278c-.02-.057-.777-3.612-1.103-5.193-.781-3.778-.951-7.364-1.1-10.528-.12-2.514-.232-4.887-.636-6.925-1.14-5.756-1.928-13.205-1.936-13.28l-.002-.035c-.091-5.923.757-11.592.766-11.649a.397.397 0 0 1 .39-.337l7.557-.046h.003c.196 0 .363.142.393.337.016.1 1.54 10.06 2.098 13.465.345 2.118-.112 4.681-.595 7.395-.523 2.934-1.064 5.97-.534 8.433 1.736 8.074.088 17.814-.33 18.56a.398.398 0 0 1-.347.203" fill="#000"/>
        <path d="M64.433 102.33c1.355-6.154 9.52-4.315 11.683 6.579.847 4.269 2.513 11.408 2.398 14.549-.043 1.185.394 2.338 1.177 3.227 5.543 6.292 5.277 7.01 7.378 13.519.033.103-1.66 2.822-2.852 3.205-4.8-3.661-9.429-11.915-11.98-14.828-2.556-2.916-7.606-20.754-7.606-20.754s-1.029-1.723-.198-5.496" fill="#181818"/>
        <path d="M64.562 102.359c-.808 3.666.173 5.384.183 5.4l.013.032c.051.178 5.071 17.842 7.577 20.703.84.957 1.892 2.473 3.11 4.23 2.497 3.6 5.6 8.074 8.796 10.536 1.051-.411 2.548-2.703 2.69-3.052-.248-.771-.464-1.459-.659-2.086-1.438-4.601-1.824-5.837-6.68-11.349-.825-.935-1.255-2.115-1.21-3.32.093-2.533-.983-7.696-1.846-11.844-.202-.963-.39-1.87-.55-2.675-1.352-6.806-4.983-9.937-7.783-9.967h-.039c-1.789 0-3.133 1.265-3.602 3.392zm19.63 41.197-.056-.042c-3.247-2.477-6.386-7.003-8.909-10.638-1.213-1.75-2.262-3.262-3.09-4.208-2.53-2.886-7.366-19.86-7.629-20.789-.109-.195-1.005-1.943-.205-5.577.501-2.274 1.964-3.628 3.903-3.6 2.905.03 6.66 3.229 8.041 10.181.16.804.347 1.709.548 2.671.867 4.163 1.946 9.343 1.852 11.909-.042 1.136.364 2.25 1.144 3.134 4.893 5.555 5.283 6.803 6.734 11.446.198.635.417 1.336.67 2.12.02.059 0 .115-.054.217-.278.543-1.764 2.795-2.883 3.155l-.066.021z" fill="#FFF"/>
        <path d="M84.217 143.806a.393.393 0 0 1-.24-.08c-3.282-2.504-6.434-7.049-8.968-10.7-1.209-1.743-2.253-3.248-3.072-4.184-1.158-1.32-2.904-5.59-5.19-12.69l-.038-.119c-.175-.569-.64-2.078-1.966-2.648a.397.397 0 1 1 .314-.73c1.663.714 2.207 2.48 2.411 3.143l.035.111c2.221 6.896 3.961 11.188 5.032 12.41.85.968 1.905 2.491 3.13 4.254 2.452 3.537 5.493 7.921 8.612 10.378.86-.46 2.094-2.243 2.37-2.764-.236-.73-.44-1.387-.628-1.987-1.425-4.557-1.808-5.783-6.626-11.252-.87-.987-1.323-2.232-1.276-3.505.092-2.5-.98-7.646-1.84-11.78-.202-.964-.39-1.872-.55-2.677-1.324-6.66-4.83-9.726-7.527-9.754-1.664-.01-2.936 1.173-3.379 3.184l-.03.15a.4.4 0 0 1-.473.305.396.396 0 0 1-.307-.47l.033-.156c.527-2.388 2.064-3.808 4.118-3.808h.047c3.008.031 6.888 3.298 8.297 10.394.16.803.348 1.708.548 2.67.87 4.176 1.953 9.373 1.858 11.971a4.222 4.222 0 0 0 1.078 2.95c4.93 5.597 5.324 6.856 6.788 11.541.198.635.417 1.334.67 2.118.055.173-.02.322-.07.42-.177.345-1.74 2.87-3.039 3.286a.393.393 0 0 1-.122.02z" fill="#000"/>
        <path d="M55.02 74.753c-3.912.704-5.707.692-8.94-.815 0 0-3.606-1.995-3.265-3.015l1.048-9.087a10.209 10.209 0 0 0-.33-4.11l-1.26-3.547c-.214-.602-1.107-.436-1.09.203l.052 1.839s-.604.007-.859-.088c-.556-.21-.976-.68-1.174-1.24-.23-.65-.607-1.687-.764-1.971-.234-.423-.505-1.036-.99-1.304l-.016-.008a.701.701 0 0 0-1.026.723l.301 1.983a6.821 6.821 0 0 0 1.92 3.799l2.038 2.04c.377.378.491.946.288 1.44l-3.463 8.427c-.78 1.945-.978 3.778-.47 4.98 2.641 6.264 18.946 10.204 18.946 10.204l-.946-10.453z" fill="#FFF"/>
        <path d="M37.096 51.923a.293.293 0 0 0-.172.056.295.295 0 0 0-.126.294l.302 1.981a6.38 6.38 0 0 0 1.808 3.58l2.04 2.04a1.72 1.72 0 0 1 .373 1.871l-3.463 8.427c-.757 1.886-.93 3.591-.473 4.676 2.27 5.377 15.306 9.085 18.135 9.832l-.857-9.46c-3.698.637-5.565.563-8.754-.922l-.024-.013c-1.155-.639-3.782-2.243-3.462-3.442l1.044-9.054a9.755 9.755 0 0 0-.316-3.953l-1.253-3.525c-.038-.108-.12-.117-.184-.106-.062.012-.137.05-.134.165l.052 1.84a.397.397 0 0 1-.393.408c-.113.002-.694.001-1.002-.114-.65-.244-1.164-.784-1.41-1.479-.514-1.454-.687-1.82-.737-1.912a6.515 6.515 0 0 1-.103-.192c-.196-.366-.417-.782-.732-.956a.335.335 0 0 0-.159-.042m18.87 33.68a.37.37 0 0 1-.093-.012c-.673-.162-16.53-4.06-19.22-10.435-.538-1.276-.368-3.202.468-5.283l3.464-8.43a.922.922 0 0 0-.202-1.007l-2.039-2.04a7.177 7.177 0 0 1-2.03-4.022l-.302-1.982a1.095 1.095 0 0 1 .454-1.064 1.093 1.093 0 0 1 1.155-.069c.54.298.832.848 1.067 1.29l.097.18c.132.238.4.921.791 2.03.167.475.51.84.94 1 .057.021.174.038.31.05l-.04-1.416a.942.942 0 0 1 .782-.969.942.942 0 0 1 1.08.621l1.26 3.547a10.55 10.55 0 0 1 .35 4.292l-1.049 9.084a.421.421 0 0 1-.017.08c-.11.326 1.206 1.503 3.066 2.534 3.13 1.456 4.835 1.473 8.692.778a.4.4 0 0 1 .466.356l.947 10.453a.4.4 0 0 1-.397.434" fill="#000"/>
        <path d="M15.506 24.502a.556.556 0 0 0-.281.63l1.884 7.562c.603 2.208.96 4.477 1.062 6.764l.638 14.248s7.414 5.335 21.943 1.528l1.179-13.462a30.876 30.876 0 0 1 1.865-8.196l1.839-4.878a.65.65 0 0 0-.228-.755c-1.04-.75-3.951-2.724-6.97-3.654-5.125-1.577-18.101-2.304-22.931.213" fill="url(#a)" transform="translate(36 50)"/>
        <path d="M55.196 103.484c1.127.706 8.329 4.722 21.185 1.436l1.153-13.184a31.27 31.27 0 0 1 1.89-8.3l1.839-4.878a.25.25 0 0 0-.088-.291c-1.082-.781-3.915-2.693-6.856-3.598-5.275-1.623-18.035-2.208-22.63.186a.16.16 0 0 0-.08.18l1.885 7.563c.609 2.225.97 4.53 1.074 6.842l.628 14.044zm11.517 3.53c-7.865 0-11.91-2.823-12.137-2.986l-.156-.112-.646-14.44a30.551 30.551 0 0 0-1.05-6.677l-1.885-7.57a.955.955 0 0 1 .483-1.08c5.152-2.683 18.33-1.748 23.232-.24 3.053.94 5.973 2.909 7.086 3.712.383.277.533.777.367 1.217l-1.838 4.878a30.5 30.5 0 0 0-1.843 8.09l-1.202 13.742-.271.07c-3.89 1.02-7.27 1.397-10.14 1.397z" fill="#000"/>
        <path fill="#292929" d="m55.525 79.715.85-.577 6.725.982 2.728 11.324-.882.625z"/>
        <path fill="#3D3D3D" d="m59.756 91.365-4.23-11.65 6.6 1.244 2.82 11.11z"/>
        <path d="M59.941 82.048a.6.6 0 1 1-1.12-.427.6.6 0 0 1 1.12.427" fill="#292929"/>
        <path d="M82.253 80.847a7.688 7.688 0 0 0-.923-1.34l-1.534 4.07a30.948 30.948 0 0 0-1.422 5.035c-.26 1.741-1.086 2.971-3.028 2.8-2.45-.215-6.056-.722-7.818-3.735-.775-1.324-2.953-1.999-2.953-1.999s.373 1.183.694 1.752c.197.35-.044.463-.442.407-2.738-.385-4.492-2.929-5.236-1.752-.233.368-.133 1.467.292 2.218 1.329 2.35 4.52 3.29 6.469 3.851 3.634 1.046 8.505 6.51 13.96 5.91 4.138-.456 4.37-12.713 1.94-17.217" fill="#FFF"/>
        <path d="M60.13 86.18c-.095 0-.155.042-.203.117-.113.18-.092 1.112.302 1.81 1.263 2.233 4.375 3.13 6.233 3.665 1.363.392 2.876 1.37 4.477 2.403 2.8 1.811 5.973 3.862 9.33 3.493.726-.08 1.357-.62 1.875-1.606 1.81-3.452 1.683-11.457-.241-15.027a7.159 7.159 0 0 0-.451-.726l-1.284 3.406a30.74 30.74 0 0 0-1.403 4.972c-.415 2.792-2.11 3.24-3.453 3.121-3.04-.268-6.38-.943-8.127-3.93-.611-1.044-1.484-1.896-2.032-1.983-.167-.027-.255.03-.313.081-.04.137.263.536.408.728.132.174.269.355.367.531.206.365.104.617.024.734-.11.16-.35.335-.867.262-1.374-.194-2.481-.876-3.37-1.425-.712-.44-1.07-.626-1.271-.626m19.33 12.327c-3.283 0-6.281-1.937-8.954-3.664-1.55-1-3.015-1.947-4.265-2.308-1.975-.568-5.282-1.52-6.705-4.037-.48-.848-.615-2.099-.283-2.626.605-.954 1.602-.338 2.566.257.806.498 1.805 1.114 2.977 1.302-.056-.079-.495-2.325-.495-2.325s.61-.055.976.003c.984.157 2.012 1.374 2.593 2.368 1.565 2.673 4.674 3.29 7.51 3.54 1.504.132 2.33-.65 2.6-2.464a31.326 31.326 0 0 1 1.443-5.118l1.534-4.069a.396.396 0 0 1 .304-.25.395.395 0 0 1 .37.131c.377.44.703.915.97 1.412 2.019 3.743 2.149 12.145.246 15.773-.65 1.234-1.487 1.916-2.491 2.026a7.959 7.959 0 0 1-.895.05" fill="#000"/>
        <path d="M70.328 67.337c-.087.333-.694 2.874-.158 4.743.354 1.24 2.102 2.319 2.102 2.319s-5.465 1.336-8.613.408c-3.147-.93-2.778-1.195-2.778-1.195l2.53-1.312c.837-.504.784-1.214.764-1.877l-.013-.381c-.42.056-1.808.184-3.05-.702-1.685-1.2-1.737-3.291-1.722-3.871.03-1.18.507-.948 1.046-3.04.462-1.794.322-2.731 1.132-4.065.3-.494.615-.851.82-1.064 1.07.115 2.159.45 3.04 1.219.937.818.804 1.398 1.74 2.044 1.365.94 2.69.425 3.069 1.19.14.283.165.769-.402 1.65 0 0 1.395-.8 2.285-.205.346.23.519.597.582.863.24 1.004-.722 2.313-2.374 3.276" fill="#FFF"/>
        <path d="M61.61 73.681c.351.156.993.4 2.162.744 2.281.673 5.905.096 7.547-.228-.57-.468-1.3-1.196-1.532-2.008-.588-2.053.126-4.836.156-4.953a.395.395 0 0 1 .185-.243c1.482-.865 2.381-2.033 2.187-2.84-.023-.097-.122-.428-.416-.625-.558-.373-1.537.033-1.867.22a.396.396 0 0 1-.53-.559c.364-.57.5-1.017.38-1.259-.089-.178-.317-.228-.856-.312-.558-.085-1.32-.203-2.084-.729-.562-.388-.793-.766-1.016-1.13-.186-.306-.362-.595-.76-.94-.67-.587-1.553-.956-2.625-1.1-.238.264-.45.55-.633.852-.495.814-.605 1.455-.757 2.34-.079.464-.169.991-.33 1.618-.28 1.087-.55 1.583-.746 1.946-.184.337-.276.507-.288 1.003-.015.56.054 2.47 1.555 3.538 1.027.731 2.174.71 2.768.631a.394.394 0 0 1 .45.382l.014.446c.021.657.052 1.558-.959 2.165l-2.005 1.041zm4.828 1.853c-1.024 0-2.035-.094-2.89-.346-2.97-.876-3.03-1.218-3.072-1.468a.44.44 0 0 1 .221-.46l2.53-1.314c.56-.336.574-.768.552-1.445v-.027c-.759.034-1.87-.078-2.898-.81-1.82-1.297-1.906-3.547-1.889-4.207.017-.687.18-.985.384-1.362.187-.344.42-.772.675-1.765.153-.595.24-1.103.317-1.552.153-.9.286-1.676.86-2.62.247-.408.541-.789.873-1.134a.39.39 0 0 1 .33-.12c1.325.142 2.421.585 3.258 1.314.49.428.717.8.916 1.127.204.334.365.598.788.89.614.423 1.22.515 1.754.597.573.09 1.166.18 1.446.745.155.311.168.673.04 1.093.53-.129 1.176-.16 1.708.197.52.348.696.885.748 1.1.276 1.151-.668 2.562-2.415 3.625-.139.6-.585 2.768-.123 4.378.257.896 1.48 1.814 1.93 2.091a.399.399 0 0 1 .184.4.4.4 0 0 1-.299.324c-.167.042-3.105.75-5.928.75z" fill="#000"/>
        <path d="M64.629 70.47c-.172 0-.345-.012-.52-.035a.397.397 0 1 1 .107-.788c1.84.25 3.668-1.292 3.686-1.308a.399.399 0 0 1 .518.604c-.078.067-1.802 1.526-3.791 1.526" fill="#000"/>
        <g>
            <g transform="translate(11 11.407)">
                <mask id="d" fill="#fff">
                    <use xlink:href="#b"/>
                </mask>
                <path d="M28.064 19.992c-.104-.113-2.16-2.253-6.996-2.253-1.95 0-4.093.354-6.375 1.054l-.021.007a.91.91 0 0 1-1.059-.418c-.082-.137-2.197-3.525-9.683-3.525-.93 0-1.918.054-2.934.16a.9.9 0 0 1-.903-1.29L6.54.534a.424.424 0 0 1 .253-.218L6.99.254C7.075.227 8.92 0 11.486 0c3.619 0 6.275 1.292 8.217 3.639 1.48-.776 5.192-2.42 8.795-2.42 2.868 0 5.04.99 6.782 2.946l.179.2c.106.12.136.29.077.438L29.599 19.72a.917.917 0 0 1-1.535.273" fill="url(#c)" fill-rule="nonzero" mask="url(#d)"/>
            </g>
            <path d="M18.126 11.637s8.464-2.82 12.578 3.409c0 0 9.756-6.23 15.046 0l-5.995 15.399s-4.115-4.82-14.341-1.528c0 0-2.821-5.172-13.518-3.996l6.23-13.284z" fill="#FEF6E0"/>
            <path d="M18.602 13.624s5.451-.793 9.119 2.875M17.75 15.939s5.452-.793 9.119 2.874" stroke="#F2D5AA" stroke-width=".363"/>
            <path d="M32.97 18.26c-.104-.353-.346-1.07-.38-1.42h-.016c-.217.381-.8 1.133-1.073 1.499l1.469-.08zm-1.674.399-.74 1.002-.652.035 2.401-3.192.76-.04.92 3.015-.674.036-.287-.948-1.728.092zM35.966 17.736c1.749.36 2.855-1.177.475-1l-.475 1zm-.707 1.489c1.735.446 3.243-1.238.563-1.185l-.563 1.185zm.704-2.789c1.45-.304 4.107.56 1.336 1.484l-.005.009c.993.154.698 1.163-.092 1.427-.5.284-2.021.25-2.69.137l1.451-3.057z" fill="#F2D5AA"/>
            <path d="M41.197 20.135c-5.574.153-.847-4.684 2.154-2.834l-.376.295c-2.297-1.59-6.017 2.432-1.66 2.209l-.118.33z" fill="#F2D5AA"/>
            <path d="M16.68 18.269s5.451-.793 9.119 2.874M15.573 21.215s5.451-.793 9.119 2.875M29.385 22.154s6.427-1.391 11.335 1.936M28.087 24.862s6.427-1.391 11.335 1.936" stroke="#F2D5AA" stroke-width=".363"/>
        </g>
        <path d="M88.615 40.293c.926 0 1.737-.148 2.434-.445.696-.297 1.268-.682 1.716-1.158.448-.475.776-.96.985-1.453.209-.493.313-.951.313-1.375 0-.333-.115-.612-.345-.836a1.143 1.143 0 0 0-.826-.336c-.375 0-.648.11-.817.332-.17.22-.312.507-.427.858-.273.745-.677 1.309-1.212 1.693-.536.385-1.191.577-1.966.577-.715 0-1.338-.17-1.87-.508-.533-.34-.945-.852-1.236-1.54-.29-.687-.436-1.548-.436-2.583 0-1.55.329-2.745.986-3.587.656-.841 1.539-1.262 2.647-1.262.696 0 1.281.164 1.757.49.475.327.888.82 1.239 1.48.212.4.404.682.577.845.172.164.43.245.776.245.309 0 .572-.118.79-.354.218-.236.327-.508.327-.817 0-.563-.224-1.16-.672-1.793-.448-.633-1.093-1.164-1.934-1.594-.842-.43-1.801-.645-2.879-.645-.883 0-1.716.158-2.497.473a5.842 5.842 0 0 0-2.043 1.375 6.14 6.14 0 0 0-1.34 2.175c-.31.847-.467 1.807-.467 2.878 0 .66.062 1.284.186 1.87.125.588.31 1.14.559 1.658.248.518.548.985.899 1.403.393.46.825.83 1.294 1.112.469.282.991.489 1.566.622.575.133 1.214.2 1.916.2z" fill="url(#e)" fill-rule="nonzero" transform="translate(3 4)"/>
        <path d="M43.883 120.293c.469 0 .869-.166 1.201-.498.332-.332.498-.697.498-1.096 0-.383-.176-.996-.527-1.84l-4.489-11.086c-.21-.554-.384-.998-.521-1.33a4.973 4.973 0 0 0-.504-.931c-.2-.29-.46-.526-.785-.71-.324-.183-.729-.275-1.213-.275-.477 0-.877.092-1.201.276a2.285 2.285 0 0 0-.785.72c-.2.297-.387.67-.563 1.12l-.451 1.154-4.395 11.156c-.18.445-.308.793-.386 1.043a2.43 2.43 0 0 0-.117.727c0 .406.168.77.503 1.09.336.32.723.48 1.16.48.516 0 .887-.15 1.114-.451.226-.301.5-.881.82-1.74l.82-2.204h6.985l.82 2.157c.11.265.24.572.393.92.152.347.295.605.428.773.132.168.296.3.492.398.195.098.43.147.703.147zm-3.774-7.008h-5.132l2.543-7.09 2.59 7.09z" fill="url(#f)" fill-rule="nonzero" transform="translate(3 4)"/>
        <path d="M8.839 87c1.088 0 2.04-.052 2.857-.157.816-.104 1.539-.284 2.167-.539a5.28 5.28 0 0 0 2.393-1.985c.591-.896.887-1.903.887-3.022 0-2.419-1.356-4.047-4.068-4.884 2.065-.927 3.097-2.392 3.097-4.393 0-.582-.099-1.134-.296-1.657-.197-.523-.483-1-.858-1.433a5.057 5.057 0 0 0-1.295-1.07 5.569 5.569 0 0 0-1.943-.683C11.058 67.06 10.204 67 9.22 67H2.533c-.891 0-1.536.193-1.935.58C.2 67.966 0 68.6 0 69.483v15.034c0 .864.195 1.494.584 1.89.39.395 1.04.593 1.95.593h6.305zm-1.09-11.429H4.286v-5.714h3.068c1.375 0 2.398.184 3.069.55.67.367 1.006 1.109 1.006 2.224 0 .523-.107.995-.319 1.418-.271.593-.664.995-1.177 1.206-.514.21-1.242.316-2.184.316zm.947 8.572h-4.41v-5.714h4.272c1.428 0 2.502.222 3.22.667.72.445 1.08 1.162 1.08 2.15 0 1.931-1.388 2.897-4.162 2.897z" fill="url(#g)" fill-rule="nonzero" transform="translate(3 4)"/>
        <g fill="#FFF">
            <path d="m67.73 29.003.529.86a.223.223 0 0 1-.378.233l-.53-.861a.222.222 0 1 1 .38-.232zm-1.726-.44a.224.224 0 0 1-.078.305l-.856.508a.222.222 0 1 1-.226-.383l.855-.507a.224.224 0 0 1 .305.077zM69 26.788a.224.224 0 0 1-.078.305l-.856.508a.222.222 0 1 1-.226-.383l.855-.507a.224.224 0 0 1 .305.077zm-3.115-.798.527.861a.22.22 0 0 1-.188.338.222.222 0 0 1-.19-.105l-.528-.86a.222.222 0 1 1 .379-.233z"/>
        </g>
        <path d="M47.999 4.322a.678.678 0 1 0 .004 1.357A.678.678 0 0 0 48 4.322m0 1.678a1.003 1.003 0 0 1-.967-1.255.994.994 0 0 1 .465-.609A1 1 0 1 1 48 6" fill="#181818"/>
        <path d="M20.905 48.948a.979.979 0 1 1-.5 1.893.979.979 0 0 1 .5-1.893" fill="#EAB300"/>
        <path d="M85.283 14.877a.5.5 0 1 0-.255-.967.5.5 0 0 0 .255.967" fill="#F1DE9D"/>
        <g fill="#EAB300">
            <path d="M98.376 81.445a.927.927 0 0 0-.469.128.935.935 0 0 0 .234 1.709.934.934 0 1 0 .235-1.837m.004 2.313a1.38 1.38 0 0 1-.696-2.57 1.37 1.37 0 0 1 1.045-.142c.356.093.654.321.84.638.185.32.236.69.142 1.046-.094.356-.32.653-.639.84a1.367 1.367 0 0 1-.692.188"/>
        </g>
    </g>
</svg>
