<svg width="110" height="141" viewBox="0 0 110 141" xmlns="http://www.w3.org/2000/svg" xmlns:xlink="http://www.w3.org/1999/xlink">
    <defs>
        <path id="a" d="M0 0h26.478v5.164H0z"/>
        <path id="i" d="M0 0h1.194v1.603H0z"/>
        <path id="k" d="M0 0h1.195v1.603H0z"/>
        <path id="m" d="M0 0h.744v.998H0z"/>
        <path id="o" d="M0 0h.744v.998H0z"/>
        <path id="q" d="M0 0h1v1.355H0z"/>
        <path id="r" d="M0 0h1v1.355H0z"/>
        <path id="s" d="M0 0h90.748v14.397H0z"/>
        <path id="v" d="M0 0h5.149v5.148H0z"/>
        <linearGradient x1="50%" y1="0%" x2="50%" y2="100%" id="c">
            <stop stop-color="#FFE51E" offset="0%"/>
            <stop stop-color="#FFC60D" offset="100%"/>
        </linearGradient>
        <linearGradient x1="70.281%" y1="19.8%" x2="70.281%" y2="88.982%" id="d">
            <stop stop-color="#FFE51E" offset="0%"/>
            <stop stop-color="#FFC60D" offset="100%"/>
        </linearGradient>
        <linearGradient x1="50%" y1="0%" x2="50%" y2="100%" id="f">
            <stop stop-color="#FFE51E" offset="0%"/>
            <stop stop-color="#FFC60D" offset="100%"/>
        </linearGradient>
        <linearGradient x1="70.281%" y1="19.8%" x2="70.281%" y2="88.982%" id="e">
            <stop stop-color="#FFE51E" offset="0%"/>
            <stop stop-color="#FFC60D" offset="100%"/>
        </linearGradient>
        <linearGradient x1="50%" y1="0%" x2="50%" y2="100%" id="h">
            <stop stop-color="#FFE51E" offset="0%"/>
            <stop stop-color="#FFC60D" offset="100%"/>
        </linearGradient>
        <linearGradient x1="70.281%" y1="19.8%" x2="70.281%" y2="88.982%" id="g">
            <stop stop-color="#FFE51E" offset="0%"/>
            <stop stop-color="#FFC60D" offset="100%"/>
        </linearGradient>
        <linearGradient x1="50%" y1="0%" x2="50%" y2="100%" id="u">
            <stop stop-color="#FFE51E" offset="0%"/>
            <stop stop-color="#FFC60D" offset="100%"/>
        </linearGradient>
    </defs>
    <g fill="none" fill-rule="evenodd">
        <path d="M0 1h110v140H0z"/>
        <path fill="#FE9624" d="M7 66.423h25.614l-12.808-47.96z"/>
        <path d="M7.938 66.547h24.836L20.356 20.353 7.938 66.547zm25.345.774H7.43a.393.393 0 0 1-.309-.151.385.385 0 0 1-.067-.337L19.98 18.75a.39.39 0 0 1 .754 0l12.925 48.083a.385.385 0 0 1-.067.337.392.392 0 0 1-.31.15z" fill="#181818"/>
        <path d="M44.875 19.95c-.22 0-.44.015-.662.043-2.842.36-4.861 2.968-4.503 5.814a5.167 5.167 0 0 0 1.97 3.459 5.151 5.151 0 0 0 3.834 1.05c2.84-.36 4.862-2.968 4.503-5.814a5.165 5.165 0 0 0-1.97-3.459 5.152 5.152 0 0 0-3.172-1.092zm-.024 10.841c-1.241 0-2.44-.41-3.438-1.183a5.6 5.6 0 0 1-2.133-3.747 5.64 5.64 0 0 1 4.88-6.298 5.58 5.58 0 0 1 4.154 1.138 5.602 5.602 0 0 1 2.134 3.746c.387 3.083-1.801 5.91-4.88 6.3-.24.028-.479.044-.717.044zm-1.903 2.725c.017 0 .032.001.048.005.457.102.933.167 1.415.191a.22.22 0 0 1 .193.144l.723 1.998 1.741-.22.205-2.117a.215.215 0 0 1 .15-.185c.461-.145.907-.325 1.324-.539a.218.218 0 0 1 .238.028l1.621 1.366 1.398-1.062-.88-1.936a.219.219 0 0 1 .038-.236c.322-.35.616-.73.875-1.129a.217.217 0 0 1 .22-.095l2.09.372.681-1.621-1.726-1.234a.215.215 0 0 1-.086-.223 8.59 8.59 0 0 0 .192-1.418.216.216 0 0 1 .143-.192l1.996-.725-.22-1.745-2.112-.204a.214.214 0 0 1-.186-.15 8.34 8.34 0 0 0-.538-1.325.217.217 0 0 1 .028-.238l1.366-1.624L52.823 18l-1.932.881a.214.214 0 0 1-.236-.037 8.526 8.526 0 0 0-1.129-.875.218.218 0 0 1-.093-.22l.372-2.094-1.619-.68-1.23 1.727a.22.22 0 0 1-.225.086 8.454 8.454 0 0 0-1.415-.191.217.217 0 0 1-.193-.144l-.722-1.999-1.742.221-.205 2.116a.215.215 0 0 1-.15.186 8.67 8.67 0 0 0-1.324.538.216.216 0 0 1-.238-.027l-1.62-1.367-1.4 1.063.88 1.935c.037.08.021.173-.037.237-.323.35-.616.731-.875 1.129a.217.217 0 0 1-.22.095l-2.09-.372-.681 1.621 1.726 1.233c.07.05.104.139.085.223a8.603 8.603 0 0 0-.191 1.418.217.217 0 0 1-.143.193l-1.995.724.219 1.744 2.113.204c.086.01.16.069.185.153.145.46.325.906.537 1.324.04.077.03.172-.026.238l-1.366 1.624 1.061 1.402 1.932-.882a.215.215 0 0 1 .237.038c.35.321.728.616 1.127.875a.22.22 0 0 1 .095.22l-.373 2.093 1.619.681 1.232-1.727a.214.214 0 0 1 .175-.091zm2.234 2.791a.217.217 0 0 1-.204-.142l-.732-2.028a9.04 9.04 0 0 1-1.203-.162l-1.25 1.753a.218.218 0 0 1-.26.074l-1.938-.816a.218.218 0 0 1-.13-.237l.378-2.125a8.818 8.818 0 0 1-.956-.744l-1.96.895a.218.218 0 0 1-.264-.067l-1.27-1.677a.217.217 0 0 1 .006-.27l1.386-1.648a9.065 9.065 0 0 1-.456-1.126l-2.143-.208a.216.216 0 0 1-.194-.188l-.263-2.089a.218.218 0 0 1 .14-.231l2.025-.734a9.24 9.24 0 0 1 .163-1.205l-1.75-1.25a.218.218 0 0 1-.074-.262l.815-1.94a.215.215 0 0 1 .237-.13l2.12.38a9.06 9.06 0 0 1 .745-.961l-.893-1.963a.217.217 0 0 1 .066-.262l1.674-1.274a.218.218 0 0 1 .27.007l1.646 1.387c.36-.175.736-.33 1.125-.457l.206-2.146c.01-.1.089-.181.188-.194l2.086-.265c.1-.013.196.046.231.142l.732 2.028c.409.027.812.081 1.203.162l1.25-1.753a.215.215 0 0 1 .26-.074l1.937.816c.094.04.148.138.13.237l-.377 2.125c.334.226.655.475.956.743l1.962-.894c.09-.042.2-.014.262.067l1.27 1.676a.217.217 0 0 1-.007.271l-1.385 1.647c.175.36.328.737.456 1.127l2.143.208a.214.214 0 0 1 .194.188l.263 2.088a.215.215 0 0 1-.141.231l-2.025.735a8.919 8.919 0 0 1-.163 1.205l1.752 1.25c.081.06.112.167.073.262l-.816 1.94a.217.217 0 0 1-.236.13l-2.12-.38a9.211 9.211 0 0 1-.744.961l.892 1.962a.22.22 0 0 1-.066.263l-1.674 1.272a.215.215 0 0 1-.27-.005l-1.646-1.387a9.035 9.035 0 0 1-1.124.456l-.207 2.147a.217.217 0 0 1-.189.194l-2.085.263a.256.256 0 0 1-.027.002z" fill="#FFE9D2"/>
        <path d="M33.337 67.224c0 2.424-5.809 4.39-12.973 4.39-7.166 0-12.974-1.966-12.974-4.39 0-2.425 5.808-4.39 12.974-4.39 7.164 0 12.973 1.965 12.973 4.39" fill="#FE9624"/>
        <path d="M20.364 72C12.87 72 7 69.901 7 67.224c0-.215.174-.388.39-.388.216 0 .39.173.39.388 0 1.932 5.056 4.002 12.584 4.002 7.527 0 12.583-2.07 12.583-4.002 0-.215.175-.388.39-.388.216 0 .39.173.39.388 0 2.677-5.87 4.776-13.363 4.776" fill="#000"/>
        <g transform="translate(7 62.447)">
            <mask id="b" fill="#fff">
                <use xlink:href="#a"/>
            </mask>
            <path d="M11.344.827a.39.39 0 0 1-.39-.367.388.388 0 0 1 .369-.406 39.095 39.095 0 0 1 3.154-.038.388.388 0 1 1-.022.774 38.875 38.875 0 0 0-3.09.037h-.02zm9.314.706a.382.382 0 0 1-.089-.01c-.94-.217-1.96-.388-3.035-.513a.387.387 0 1 1 .091-.77 28.71 28.71 0 0 1 3.12.529c.21.048.342.256.292.464a.39.39 0 0 1-.38.3zM5.18 1.758a.39.39 0 0 1-.376-.285.386.386 0 0 1 .271-.476C6.023.736 7.068.522 8.18.359a.39.39 0 0 1 .444.327.39.39 0 0 1-.329.44 24.902 24.902 0 0 0-3.01.617.384.384 0 0 1-.104.015zm20.907 2.545a.391.391 0 0 1-.337-.191c-.345-.59-1.134-1.165-2.282-1.667a.386.386 0 0 1-.2-.51.39.39 0 0 1 .514-.199c1.318.575 2.208 1.244 2.641 1.985a.385.385 0 0 1-.336.582zM.39 5.164A.39.39 0 0 1 0 4.777c0-.667.362-1.662 2.089-2.62a.391.391 0 0 1 .53.148.386.386 0 0 1-.149.528C1.7 3.26.78 3.945.78 4.777a.389.389 0 0 1-.39.387z" fill="#181818" mask="url(#b)"/>
        </g>
        <path d="M33.328 67.292H20.191a.387.387 0 0 1-.39-.388V19.268c0-.214.173-.388.39-.388a.39.39 0 0 1 .39.388v47.25h12.747c.216 0 .391.173.391.386a.389.389 0 0 1-.39.388" fill="#181818"/>
        <path d="M24.77 1.246c.467-.118 1.018-.225 1.448.196.503.492.008.88-.167 1.272-.274.611-.29 1.178.208 1.646.532.5 1.173.606 1.84.287.98-.469 1.368-1.712.842-2.768-.599-1.2-1.62-1.817-2.907-1.873-2.501-.108-4.343 1.258-6.006 2.949-1.9 1.933-2.856 4.46-4.074 6.818-.685 1.326-1.699 2.151-3.135 2.408-.496.088-1.016.064-1.525.051-.998-.025-.653.848-.77 1.304-.16.63.458.356.723.365 1.097.037 2.196.016 3.43.016-.104.46-.17.811-.265 1.154-1.77 6.325-3.539 12.65-5.32 18.972-.465 1.652-1.003 3.28-2.05 4.666-.893 1.183-2.056 1.921-3.53 2.088-.346.039-.739.077-.951-.297-.224-.392.18-.558.351-.787.428-.572.573-1.15.074-1.736-.525-.616-1.15-.706-1.88-.332C.352 38.03.018 38.647 0 39.465c-.027 1.316 1.231 2.495 2.735 2.533 2.204.055 3.963-.975 5.49-2.47 2.017-1.978 3.29-4.455 4.37-7.035 2.267-5.415 3.49-11.163 5.115-16.782.517-1.789.505-1.878 2.27-1.766 1.241.08 1.82-.325 1.754-1.69h-3.198c1.208-3.053 1.836-6.164 3.555-8.837.655-1.02 1.48-1.87 2.68-2.172" fill="url(#c)" stroke="url(#d)" transform="translate(15 43)"/>
        <path d="M44.958 29.31c.155-.237.515-.565.121-.824-.312-.206-.424.211-.592.418-.353.431-.694.883-1.1 1.257-.848.78-1.387.651-1.7-.458-.401-1.43-.564-2.948-1.092-4.321-.67-1.744-.046-3.025.964-4.29.149-.187.302-.371.45-.56.735-.935 1.485-1.441 2.68-.604.89.622 1.809.022 1.892-1.084.048-.645-.128-1.19-.68-1.57-.636-.438-1.268-.327-1.87.03-1.588.941-2.593 2.43-3.503 4.004-.13.227-.182.595-.525.55-.346-.044-.316-.436-.383-.678-.349-1.278-.583-2.603-1.525-3.613-.232-.25-.395-.62-.848-.515-1.123.263-2.256.487-3.371.78-.34.09-.773.22-.656.797.103.51.48.31.746.325 1.892.105 2.528.495 2.987 2.076.386 1.332.982 2.618.96 4.052 0 .106-.105.213-.166.316-.94 1.585-1.913 3.146-3.131 4.53-.571.648-1.121.965-1.844.15-.375-.424-.917-.647-1.486-.302-.472.286-.721.717-.696 1.303.045 1.064 1.166 1.763 2.256 1.374.912-.326 1.6-.97 2.228-1.707 1.193-1.399 2.124-2.987 3.214-4.737.445 1.817.796 3.47 1.261 5.089.426 1.481 1.425 1.82 2.704 1.03 1.137-.702 1.977-1.707 2.705-2.819" stroke="url(#e)" fill="url(#f)" transform="translate(15 43)"/>
        <path d="M25.977 25.3c1.559-6.424 3.998-12.354 9.464-16.522.197-.151.51-.285.18-.617-.31-.31-.474-.025-.686.132-2.076 1.541-4.027 3.225-5.805 5.108-3.734 3.953-6.06 8.522-6.063 13.69-.142 4.547 1.508 8.158 3.306 11.726.104.205.178.48.499.284.386-.236.075-.52-.017-.714-2.003-4.25-1.957-8.642-.878-13.087M52.743 8.44c-.112-.228-.161-.574-.573-.34-.43.245-.071.517.01.693 1.755 3.802 2.036 7.742 1.17 11.803-1.467 6.873-3.847 13.246-9.649 17.758-.198.154-.578.29-.32.633.316.424.545-.006.763-.166a42.886 42.886 0 0 0 4.91-4.182c4.218-4.194 7.06-9.02 6.942-14.683.09-4.533-1.534-8.04-3.253-11.517" stroke="url(#g)" fill="url(#h)" transform="translate(15 43)"/>
        <path d="M93.271 31.032a.978.978 0 1 1-.5 1.891.978.978 0 0 1 .5-1.89" fill="#FFF"/>
        <g>
            <g transform="translate(94.174 61.7)">
                <mask id="j" fill="#fff">
                    <use xlink:href="#i"/>
                </mask>
                <path d="M.921 1.603a.273.273 0 0 1-.232-.13L.04.416A.274.274 0 0 1 .506.13l.648 1.057a.274.274 0 0 1-.233.416" fill="#181818" mask="url(#j)"/>
            </g>
            <g transform="translate(91.905 58)">
                <mask id="l" fill="#fff">
                    <use xlink:href="#k"/>
                </mask>
                <path d="M.922 1.603a.274.274 0 0 1-.233-.13L.04.416A.272.272 0 0 1 .131.04a.273.273 0 0 1 .376.09l.647 1.057a.272.272 0 0 1-.232.416" fill="#181818" mask="url(#l)"/>
            </g>
            <path d="M94.95 60.145a.273.273 0 0 1-.14-.508l1.052-.623a.271.271 0 0 1 .373.096.272.272 0 0 1-.095.374l-1.05.623a.281.281 0 0 1-.14.038M91.273 62.325a.274.274 0 0 1-.235-.132.274.274 0 0 1 .096-.376l1.05-.622a.272.272 0 0 1 .375.096.274.274 0 0 1-.096.374l-1.051.623a.276.276 0 0 1-.139.037" fill="#181818"/>
        </g>
        <g>
            <g transform="translate(8.977 9.304)">
                <mask id="n" fill="#fff">
                    <use xlink:href="#m"/>
                </mask>
                <path d="M.574.998a.17.17 0 0 1-.145-.08L.025.258a.17.17 0 0 1 .29-.178l.403.658a.17.17 0 0 1-.144.26" fill="#181818" mask="url(#n)"/>
            </g>
            <g transform="translate(7.564 7)">
                <mask id="p" fill="#fff">
                    <use xlink:href="#o"/>
                </mask>
                <path d="M.574.998A.17.17 0 0 1 .43.918L.025.257A.17.17 0 0 1 .082.026a.17.17 0 0 1 .233.056L.72.74A.17.17 0 0 1 .574 1" fill="#181818" mask="url(#p)"/>
            </g>
            <path d="M9.46 8.336a.17.17 0 0 1-.087-.317l.655-.387a.169.169 0 0 1 .232.06.17.17 0 0 1-.059.232l-.654.388a.175.175 0 0 1-.087.024M7.17 9.694a.17.17 0 0 1-.146-.083.17.17 0 0 1 .06-.234l.654-.387a.17.17 0 0 1 .233.06.17.17 0 0 1-.06.233l-.654.387a.172.172 0 0 1-.087.024" fill="#181818"/>
        </g>
        <path d="M71.377 29.445a.93.93 0 0 0-.901.696.936.936 0 0 0 .665 1.14.936.936 0 0 0 1.14-.664.936.936 0 0 0-.904-1.172m0 2.313a1.38 1.38 0 0 1-.694-2.57 1.38 1.38 0 0 1 2.027 1.542 1.383 1.383 0 0 1-1.332 1.028" fill="#181818"/>
        <g>
            <path d="m15.563 99.557.93.392a.223.223 0 0 1-.173.41l-.93-.392a.223.223 0 0 1 .173-.41zm-3.254-1.375.93.392a.222.222 0 1 1-.173.41l-.93-.393a.222.222 0 0 1 .173-.409zm2.997-1.163c.113.05.163.18.114.293l-.401.91a.22.22 0 0 1-.293.114.223.223 0 0 1-.114-.293l.4-.91a.223.223 0 0 1 .294-.114zm-1.894 4.522a.202.202 0 0 1-.089-.02.22.22 0 0 1-.114-.292l.4-.91a.223.223 0 0 1 .294-.114c.113.05.163.181.113.293l-.4.91a.223.223 0 0 1-.204.133" fill="#FFF"/>
        </g>
        <g>
            <path d="m29.563 120.557.93.392a.223.223 0 0 1-.173.41l-.93-.392a.223.223 0 0 1 .173-.41zm-3.254-1.375.93.392a.222.222 0 1 1-.173.41l-.93-.393a.222.222 0 0 1 .173-.409zm2.997-1.163c.113.05.163.18.114.293l-.401.91a.22.22 0 0 1-.293.114.223.223 0 0 1-.114-.293l.4-.91a.223.223 0 0 1 .294-.114zm-1.894 4.522a.202.202 0 0 1-.089-.02.22.22 0 0 1-.114-.292l.4-.91a.223.223 0 0 1 .294-.114c.113.05.163.181.113.293l-.4.91a.223.223 0 0 1-.204.133" fill="#FFF"/>
        </g>
        <g>
            <path d="M.783 147.464h80.611c4.975 0 9.007-3.068 9.007-6.854 0-3.784-4.032-6.852-9.007-6.852H.807c3.785 4.052 3.829 9.472.111 13.558l-.135.148z" fill="#FFF"/>
            <g transform="matrix(-1 0 0 1 90.748 133.413)">
                <mask id="t" fill="#fff">
                    <use xlink:href="#s"/>
                </mask>
                <path d="M9.354.692C4.579.692.693 3.611.693 7.198c0 3.588 3.886 6.507 8.661 6.507H89.2c-3.288-3.964-3.289-9.051-.024-13.013H9.354zm81.395 13.705H9.354C4.197 14.397 0 11.168 0 7.198 0 3.229 4.197 0 9.354 0h81.384l-.544.582c-3.641 3.897-3.684 9.157-.107 13.089l.662.726z" fill="#181818" mask="url(#t)"/>
            </g>
            <path d="M48.552 140.132h32.72a.346.346 0 0 0 0-.692h-32.72a.346.346 0 1 0 0 .692M29.17 140.132h6.513a.345.345 0 0 0 0-.692H29.17a.346.346 0 1 0 0 .692" fill="#000"/>
            <path d="M68.194 122.498c0-4.555 2.297-8.457 5.561-10.1a.442.442 0 0 0 .223-.399c0-.239-.16-.433-.356-.433H11.535c-4.975 0-9.008 4.895-9.008 10.932 0 6.037 4.033 10.931 9.008 10.931h62.087c.196 0 .356-.194.356-.432a.443.443 0 0 0-.223-.4c-3.264-1.643-5.56-5.544-5.56-10.099" fill="#FFF"/>
            <path d="M73.978 132.997a.442.442 0 0 0-.224-.4 8.49 8.49 0 0 1-.9-.527H11.535c-4.35 0-7.889-4.294-7.889-9.572s3.54-9.573 7.89-9.573h61.318c.291-.195.591-.37.9-.527a.441.441 0 0 0 .224-.399c0-.239-.16-.433-.356-.433H11.535c-3.887 0-7.199 2.988-8.46 7.173a13.003 13.003 0 0 0-.548 3.76 13 13 0 0 0 .547 3.757c.1.335.215.662.341.98.57 1.435 1.39 2.695 2.39 3.697 1.557 1.56 3.553 2.496 5.73 2.496h62.087c.196 0 .356-.194.356-.432" fill="#181818"/>
            <path d="M57.357 121.864h-8.134v7.223c0 .482.436.778.775.526l3.026-2.248a.434.434 0 0 1 .531 0l3.028 2.248c.338.252.774-.044.774-.526v-7.223z" fill="#181818"/>
            <path d="M30.212 122.336h32.72a.345.345 0 0 0 0-.692h-32.72a.346.346 0 1 0 0 .692M13.122 122.336h8.18a.345.345 0 1 0 0-.692h-8.18a.346.346 0 1 0 0 .692" fill="#000"/>
            <path fill="#FFF" d="M80.066 108h5.97l3.9-9.757h-5.969z"/>
            <path fill="#FFF" d="m83.968 98.243-1.652 4.115.258.088 1.512-3.797z"/>
            <path fill="#181818" d="M86.134 108.358h-5.89l3.863-9.661h5.889z"/>
            <path d="M28.877 16.314s5.385 2.288 5.775 7.365c.39 5.078 2.544 20.439-2.162 25.998 0 0-1.346-4.068-11.785-9.331 0 0-.225-14.202 1.044-18.5 1.269-4.296 6.933-5.304 7.128-5.532" fill="url(#u)" transform="matrix(-1 0 0 1 100.075 78)"/>
            <path d="M79.079 118.164c-8.408 4.268-10.898 7.741-11.558 8.96-3.731-5.065-2.57-17.293-2.002-23.245.08-.848.149-1.58.195-2.178.34-4.426 4.688-6.687 5.477-7.062.098.04.239.084.449.151 1.475.472 5.397 1.726 6.406 5.14 1.166 3.948 1.054 16.588 1.033 18.234zm-11.494 9.806a.295.295 0 0 0 .278-.201c.013-.039 1.482-4.042 11.638-9.163a.289.289 0 0 0 .16-.255c.01-.583.214-14.297-1.054-18.587-1.096-3.71-5.232-5.034-6.79-5.532-.184-.059-.376-.12-.438-.149a.293.293 0 0 0-.295-.039c-.226.097-5.554 2.417-5.953 7.612a139.95 139.95 0 0 1-.195 2.167c-.632 6.654-1.81 19.04 2.425 24.043a.294.294 0 0 0 .224.104z" fill="#000"/>
            <path d="M67.552 107.313s2.52.704 4.77-.472l.047 3.808s5.625-1.744 7.09-2.77c1.465-1.025.374-4.604 3.114-5.432 0 0-.585 1.66-.34 1.855.243.196.975.293 1.805-.244.83-.537 2.344-1.27 3.37-1.025 1.025.244-.564 4.188-3.028 5.028-3.127 1.066-8.644 8.104-13.119 9.32a2.329 2.329 0 0 1-2.728-1.245c-.265-.56-.5-1.325-.607-2.362-.276-2.701-.374-6.461-.374-6.461" fill="#FFF"/>
            <path d="M86.97 103.278c.132 0 .256.013.37.039.075.019.088.21.09.248.05 1.033-1.275 3.583-3.145 4.22-1.432.488-3.239 2.086-5.33 3.935-2.5 2.21-5.334 4.717-7.77 5.38a2.044 2.044 0 0 1-2.387-1.09c-.295-.621-.49-1.383-.58-2.265-.223-2.165-.33-5.046-.362-6.065.75.142 2.48.34 4.177-.381l.043 3.354a.289.289 0 0 0 .122.233.29.29 0 0 0 .258.043c.232-.072 5.686-1.77 7.171-2.81.7-.49.882-1.406 1.074-2.377.215-1.081.437-2.193 1.393-2.768-.383 1.286-.15 1.47-.045 1.557.39.31 1.275.338 2.15-.228.837-.543 1.955-1.025 2.77-1.025m-16.328 14.48c.23 0 .465-.03.696-.093 2.57-.7 5.458-3.253 8.006-5.506 1.96-1.733 3.81-3.37 5.132-3.82 2.141-.731 3.597-3.591 3.54-4.802-.029-.603-.387-.752-.54-.79-1.358-.322-3.234.83-3.596 1.065-.674.436-1.224.377-1.415.29-.01-.224.16-.915.386-1.557a.293.293 0 0 0-.36-.378c-1.782.538-2.103 2.159-2.363 3.46-.169.853-.329 1.658-.836 2.013-1.195.837-5.358 2.203-6.635 2.612l-.043-3.414a.292.292 0 0 0-.428-.256c-2.115 1.105-4.53.456-4.555.449a.295.295 0 0 0-.37.29c0 .037.101 3.802.375 6.483.097.949.311 1.776.634 2.457a2.623 2.623 0 0 0 2.372 1.497M73.98 93.735c-.999-.172-3.045-1.276-3.818-3.556-.774-2.28-.53-5.173.172-6.213.701-1.04 5.196-5.052 9.057-2.213 3.862 2.838.416 7.16.416 7.16l-5.827 4.822z" fill="#000"/>
            <path d="M65.957 86.738a2.918 2.918 0 0 1 1.104-3.975 2.917 2.917 0 1 1-1.104 3.975" fill="#000"/>
            <g transform="matrix(-1 0 0 1 79.396 78)">
                <mask id="w" fill="#fff">
                    <use xlink:href="#v"/>
                </mask>
                <path d="M4.816 3.84A2.574 2.574 0 1 0 .332 1.31a2.574 2.574 0 0 0 4.484 2.53" fill="#000" mask="url(#w)"/>
            </g>
            <path d="m72.506 91.076-.927 2.808c-.457 1.38-.062 2.918 1.04 3.867.188.161.392.316.612.456.563.359 1.314.036 1.465-.615l.847-3.642-3.037-2.874z" fill="#FFF"/>
            <path d="m75.22 94.046-.809 3.48a.687.687 0 0 1-.416.485.654.654 0 0 1-.609-.052 4.921 4.921 0 0 1-.576-.43c-1.007-.867-1.38-2.26-.954-3.554l.783-2.37 2.58 2.441zm-1.483 4.603a1.281 1.281 0 0 0 1.244-.992l.846-3.642a.291.291 0 0 0-.084-.279l-3.037-2.873a.292.292 0 0 0-.478.12l-.928 2.808c-.5 1.52-.059 3.16 1.128 4.182.208.178.425.341.645.48.203.13.432.196.664.196z" fill="#000"/>
            <path d="M79.604 84.262c.454-.128 2.356 7.216.497 8.621-1.86 1.406-5.489 1.201-6.66-1.044 0 0-1.478.416-1.874-1.605-.333-1.697 1.471-1.115 2.031-.897.11.042.231.048.344.016 1.415-.59-.824-2.472 2.613-4.887 0 0 1.353.274 3.05-.204" fill="#FFF"/>
            <path d="M79.532 84.584c.37.641 1.238 4.005 1.05 6.29-.073.892-.3 1.506-.658 1.775-.976.74-2.495 1.015-3.869.707-1.092-.247-1.928-.833-2.355-1.652a.292.292 0 0 0-.339-.146c-.002 0-.422.107-.813-.137-.34-.213-.574-.632-.694-1.244-.049-.246-.07-.57.098-.71.225-.19.83-.134 1.541.142a.823.823 0 0 0 .528.025l.034-.01c.734-.308.728-.92.721-1.51-.009-.842-.022-1.986 1.85-3.34.375.056 1.513.172 2.906-.19m-2.348 9.48c1.15 0 2.282-.334 3.093-.948 1.844-1.393.446-7.442-.196-8.735-.066-.134-.243-.489-.556-.4-1.61.452-2.899.201-2.91.198a.296.296 0 0 0-.228.047c-2.222 1.561-2.206 2.964-2.196 3.893.007.591-.009.81-.343.955a.243.243 0 0 1-.144-.01c-.557-.216-1.575-.51-2.128-.047-.312.26-.412.69-.296 1.273.153.783.48 1.333.968 1.634.392.241.792.257 1.037.235.531.877 1.461 1.501 2.641 1.767.412.093.836.138 1.258.138" fill="#000"/>
            <path d="M89.782 141.34c1.068-.6 2.334-.507 3.333.228.711.523 1.832 1.09 3.593 1.511 1.201.287 2.017.684 2.571 1.107.935.713.48 2.364-.649 2.364h-9.285l-.402-5.214.839.003z" fill="#FFC60D"/>
            <path d="M91.265 141.243c.585 0 1.17.188 1.677.561.9.663 2.145 1.188 3.697 1.56 1.045.25 1.873.605 2.462 1.054.402.306.453.827.324 1.206-.05.148-.256.635-.796.635h-9.014l-.357-4.629.524.002a.28.28 0 0 0 .143-.036c.421-.238.88-.353 1.34-.353m-1.92 5.6h9.284c.618 0 1.136-.395 1.351-1.032.234-.694.024-1.44-.524-1.859-.654-.498-1.555-.888-2.68-1.157-1.477-.355-2.65-.846-3.488-1.462-1.07-.787-2.435-.894-3.58-.285l-.764-.004a.29.29 0 0 0-.216.094.289.289 0 0 0-.077.221l.401 5.213a.294.294 0 0 0 .292.272" fill="#000"/>
            <path d="M85.228 141.34c1.068-.6 2.333-.507 3.333.228.71.523 1.832 1.09 3.593 1.511 2.328.558 3.211 1.523 3.531 2.294.228.548-.125 1.177-.66 1.177h-9.729c-.747 0-1.302-.778-1.143-1.602l.651-3.37.424-.239z" fill="#FFC60D"/>
            <path d="M86.71 141.243c.586 0 1.17.188 1.678.561.9.663 2.145 1.188 3.698 1.56 2.247.538 3.05 1.45 3.329 2.121.079.19.06.41-.051.575a.413.413 0 0 1-.34.198h-9.727a.814.814 0 0 1-.63-.314 1.151 1.151 0 0 1-.227-.94l.626-3.238.306-.17c.42-.238.88-.353 1.339-.353m-1.414 5.6h9.727a.99.99 0 0 0 .827-.456c.22-.332.259-.752.105-1.125-.331-.796-1.247-1.871-3.733-2.468-1.477-.354-2.651-.846-3.49-1.462-1.09-.803-2.49-.898-3.648-.248l-.423.238a.291.291 0 0 0-.144.2l-.652 3.37c-.097.508.032 1.04.35 1.425.275.334.67.526 1.08.526" fill="#000"/>
            <path d="M66.803 125.714s1.088-1.3 6.426-4.889c5.338-3.588 15.35-5.966 18.427-5.83 4.198.185 4.1 5.12 4.1 8.073 0 4.316 1.66 19.351 1.66 19.351h-9.52s-1.514-9.466-.489-17.819c0 0-3.556 7.705-8.527 9.372-.855.287-4.234.262-6.633-.26-2.99-.65-4.554-3.097-5.062-5.538a26.35 26.35 0 0 1-.382-2.46" fill="#000"/>
            <path d="M88.58 121.537s-5.713 12.808-5.713 20.882h7.617l-1.904-20.882z" fill="#000"/>
            <path d="M87.695 141.263c.013 0 .024 0 .037-.002a.293.293 0 0 0 .254-.327c-.327-2.6-.836-7.749-.566-13.024a.294.294 0 0 0-.278-.307.291.291 0 0 0-.306.277c-.273 5.32.24 10.508.57 13.127a.292.292 0 0 0 .29.256M89.936 98.243l.12.406h-5.97l-.119-.406zM86.579 99.704c.038.155.213.245.39.201.178-.044.292-.205.253-.36-.04-.154-.213-.244-.391-.2-.178.044-.29.205-.252.36" fill="#FFF"/>
        </g>
    </g>
</svg>
