<svg width="110" height="141" viewBox="0 0 110 141" xmlns="http://www.w3.org/2000/svg" xmlns:xlink="http://www.w3.org/1999/xlink">
    <defs>
        <path id="b" d="M0 0h1.933v1.933H0z"/>
        <path id="e" d="M0 0h38.307v16.728H0z"/>
        <path id="h" d="M0 0h21.126v18.508H0z"/>
        <path id="l" d="M0 0h22.083v30.24H0z"/>
        <path id="p" d="M0 0h1.194v1.603H0z"/>
        <path id="r" d="M0 0h1.195v1.603H0z"/>
        <path id="t" d="M0 0h1v1.355H0z"/>
        <path id="u" d="M0 0h1.955v1.956H0z"/>
        <linearGradient x1="34.005%" y1="47.134%" x2="50%" y2="72.13%" id="a">
            <stop stop-color="#FFF029" offset="0%"/>
            <stop stop-color="#E1C20A" offset="100%"/>
        </linearGradient>
        <linearGradient x1="50%" y1="0%" x2="50%" y2="100%" id="d">
            <stop stop-color="#F3E416" offset="0%"/>
            <stop stop-color="#FFF3AD" offset="100%"/>
        </linearGradient>
        <linearGradient x1="50%" y1="0%" x2="50%" y2="100%" id="g">
            <stop stop-color="#FFFCCF" offset="0%"/>
            <stop stop-color="#FFDD12" offset="100%"/>
        </linearGradient>
        <linearGradient x1="50%" y1="0%" x2="50%" y2="100%" id="i">
            <stop stop-color="#FFF029" offset="0%"/>
            <stop stop-color="#FFDD12" offset="100%"/>
        </linearGradient>
        <linearGradient x1="50%" y1="0%" x2="50%" y2="100%" id="k">
            <stop stop-color="#FFF029" offset="0%"/>
            <stop stop-color="#FFDD12" offset="100%"/>
        </linearGradient>
        <linearGradient x1="50%" y1="0%" x2="50%" y2="100%" id="m">
            <stop stop-color="#FFF029" offset="0%"/>
            <stop stop-color="#FFDD12" offset="100%"/>
        </linearGradient>
        <linearGradient x1="50%" y1="0%" x2="50%" y2="100%" id="o">
            <stop stop-color="#2BD064" offset="0%"/>
            <stop stop-color="#13A334" offset="100%"/>
        </linearGradient>
    </defs>
    <g fill="none" fill-rule="evenodd">
        <path d="M0 0h110v140H0z"/>
        <path d="M22.771 82.984c.92-.299 2.36.49 3.22 1.763l3.66 5.427c.858 1.273.808 2.545-.11 2.844l-9.1 2.957c-.92.3-2.36-.49-3.22-1.762l-3.66-5.427c-.86-1.273-.81-2.546.11-2.845l9.1-2.957z" fill="#FFF"/>
        <path d="M17.44 14.975c-.92.3-2.361-.49-3.22-1.763l-3.66-5.426c-.72-1.067-.8-2.133-.267-2.627l-5.417 5.014c-.533.494-.452 1.561.268 2.627l3.66 5.427c.859 1.272 2.3 2.062 3.219 1.763l9.1-2.957c.149-.049.276-.122.379-.218l5.417-5.015a1.01 1.01 0 0 1-.378.218l-9.101 2.957z" fill="url(#a)" transform="translate(3 81)"/>
        <path d="m23.174 92.702-.05-.001-.713-.015a.272.272 0 0 1 .005-.545h.006l.715.016c.485.009.962-.187 1.3-.542l.216-.23a.272.272 0 1 1 .396.375l-.218.229a2.284 2.284 0 0 1-1.657.713M18.59 87.187c.204-.066.523.11.715.392l1.947 2.791c.19.282.18.565-.024.631l-2.025.658c-.204.066-.523-.11-.714-.392l-1.948-2.79c-.19-.283-.18-.566.025-.633l2.024-.657z" fill="#181818"/>
        <path d="M19.782 88.818a.9.9 0 0 0 .34-.067l-.818-1.172a1.04 1.04 0 0 0-.231-.245.904.904 0 0 0-.205.57c0 .505.409.914.914.914" fill="#FFF"/>
        <path d="M23.543 85.654c.204-.066.524.109.715.392l1.947 2.791c.19.282.18.565-.024.631l-2.024.658c-.204.066-.524-.11-.715-.392l-1.947-2.79c-.19-.283-.18-.566.025-.633l2.023-.657z" fill="#181818"/>
        <path d="M24.725 87.272a.91.91 0 0 0 .342-.067l-.82-1.17a1.046 1.046 0 0 0-.23-.247.9.9 0 0 0-.206.57c0 .505.41.914.914.914" fill="#FFF"/>
        <g transform="translate(3.426 81)">
            <mask id="c" fill="#fff">
                <use xlink:href="#b"/>
            </mask>
            <path d="M0 .967a.967.967 0 1 1 1.934 0A.967.967 0 0 1 0 .967" fill="#000" mask="url(#c)"/>
        </g>
        <path d="M12.725 94.54a.273.273 0 0 1-.225-.118L4.521 82.785a.272.272 0 1 1 .448-.308l7.981 11.636a.273.273 0 0 1-.225.427" fill="#000"/>
        <path d="M23.337 130.443c-6.33.111-11.854-5.415-12.333-12.342l-.73-10.502c-.117-1.673.83-3.096 2.215-3.526l-3.021.935c-1.386.43-2.33 1.854-2.215 3.527l.73 10.501c.48 6.928 6.002 12.453 12.334 12.343a10.362 10.362 0 0 0 2.878-.457l3.02-.936c-.91.281-1.873.44-2.878.457" fill="#181818"/>
        <path d="M26.66 22.657c1.818-.032 3.403 1.555 3.54 3.542l.73 10.502c.48 6.927-4.262 12.632-10.592 12.742-6.331.111-11.854-5.415-12.334-12.342l-.73-10.502c-.137-1.988 1.224-3.625 3.04-3.657l16.347-.285z" fill="url(#d)" transform="translate(3 81)"/>
        <path d="M14.327 108.462a.967.967 0 1 1 1.934 0 .967.967 0 0 1-1.934 0" fill="#FFF"/>
        <path d="M17.736 108.462a.967.967 0 1 1 1.934 0 .967.967 0 0 1-1.934 0" fill="#000"/>
        <path d="M21.144 108.462a.967.967 0 1 1 1.934 0 .967.967 0 0 1-1.934 0" fill="#FFF"/>
        <path d="M24.553 108.462a.967.967 0 1 1 1.934 0 .967.967 0 0 1-1.934 0" fill="#000"/>
        <path d="M27.962 108.462a.967.967 0 1 1 1.934 0 .967.967 0 0 1-1.934 0M28.657 120.723H16.7a1.526 1.526 0 0 1-1.52-1.396l-.428-5.048a1.526 1.526 0 0 1 1.519-1.654h11.956c.792 0 1.452.607 1.52 1.396l.429 5.048a1.526 1.526 0 0 1-1.52 1.654" fill="#FFF"/>
        <path d="M16.272 112.897c-.354 0-.683.145-.922.405-.24.262-.356.601-.326.954l.43 5.048a1.244 1.244 0 0 0 1.247 1.147h11.956c.354 0 .682-.144.922-.406.24-.26.356-.599.326-.953l-.429-5.048a1.245 1.245 0 0 0-1.248-1.147H16.272zm12.385 8.1H16.701a1.787 1.787 0 0 1-1.79-1.647l-.43-5.048a1.8 1.8 0 0 1 1.791-1.949h11.956c.941 0 1.711.707 1.791 1.646l.43 5.047a1.8 1.8 0 0 1-1.791 1.95z" fill="#000"/>
        <path d="M20.017 115.02h-3.33a.272.272 0 1 1 0-.544h3.33a.272.272 0 1 1 0 .544M20.215 118.52h-3.332a.272.272 0 0 1 0-.546h3.332c.15 0 .27.122.27.273 0 .15-.12.272-.27.272M25.03 116.743h-8.227a.272.272 0 0 1 0-.544h8.227a.272.272 0 0 1 0 .544" fill="#FFC60D"/>
        <g transform="translate(3 128.782)">
            <mask id="f" fill="#fff">
                <use xlink:href="#e"/>
            </mask>
            <path d="M29.133 4.325A16.016 16.016 0 0 0 18.204 0 16.016 16.016 0 0 0 7.235 4.362L0 11.158c11.782 4.568 24.254 5.751 35.905 5.549 2.333-.529 3.294-3.625 1.391-5.401l-8.162-6.981z" fill="#181818" mask="url(#f)"/>
        </g>
        <path d="M30.241 4.257a16.16 16.16 0 0 0-21.9.037L.234 11.789a3.206 3.206 0 0 0-.234.232c8.394 2.983 17.118 4.645 25.582 5.197h10.799c2.831 0 4.187-3.479 2.101-5.394l-8.241-7.567z" transform="translate(5.321 128.782)" fill="url(#g)"/>
        <path d="M24.633 128.782a16.161 16.161 0 0 0-10.97 4.294l-8.107 7.495a3.436 3.436 0 0 0-.236.232c8.395 2.983 17.12 4.645 25.583 5.197h10.8c2.83 0 4.187-3.479 2.1-5.394l-8.24-7.567a16.16 16.16 0 0 0-10.93-4.257m0 .545c3.922 0 7.673 1.46 10.561 4.113l8.242 7.568c.95.873.962 2.027.654 2.816-.309.789-1.096 1.632-2.388 1.632H30.922c-8.54-.559-16.805-2.197-24.578-4.872l7.69-7.109a15.573 15.573 0 0 1 10.6-4.148" fill="#000"/>
        <g>
            <path d="m64.545 129.121 2.03-17.51h15.757l2.03 17.51H64.546zm34.525 2.14a2.139 2.139 0 0 0-2.138-2.14h-9.877l-2.05-17.66a2.135 2.135 0 0 0-.773-4.128H62.849a2.139 2.139 0 1 0 0 4.277h1.036l-2.031 17.511h-.611a2.139 2.139 0 0 0 0 4.277h.114l-1.69 14.56a1.336 1.336 0 1 0 2.656.308l1.725-14.868H84.86l1.725 14.868a1.336 1.336 0 1 0 2.655-.308l-1.69-14.56h5.152l1.725 14.868a1.336 1.336 0 1 0 2.655-.308l-1.69-14.56h1.54c1.18 0 2.138-.957 2.138-2.138z" fill="#181818"/>
            <path fill="#FFF" d="m78.464 99.848-4.1-6.906-4.053 1.827 3.876 5.347z"/>
            <path d="m70.81 94.902 3.535 4.876 3.565-.223-3.677-6.195-3.423 1.542zm3.217 5.55-4.218-5.817 4.688-2.111 4.521 7.617-4.99.312z" fill="#000"/>
            <path fill="#FFF" d="m93.757 120.868.568-4.545-5.079.066v4.446z"/>
            <path d="m89.574 120.51 3.896.028.485-3.883-4.381.057v3.797zm4.473.686-5.127-.038v-5.09l5.777-.078-.65 5.206z" fill="#000"/>
            <path d="M78.018 68.97s-.958 1.448.445 6.996c0 0-12.877 2.562-16.085 6.639 0 0-.6 2.272 1.137 5.614s2.74 8.287 2.74 8.287 6.015-1.003 9.157-3.074l-3.676-6.082s5.346.267 10.025-.869c0 0 2.002 12.677 3.943 15.104.208.26.395.504.565.733a7.596 7.596 0 0 1 1.466 3.909c.255 3.068.732 8.936.8 10.571a.272.272 0 0 0 .234.26c.954.141 4.68.616 7.234-.103a.271.271 0 0 0 .195-.296c-.146-1.16-.477-4.696-.535-8.19-.068-3.942-2.207-10.024-2.273-11.896-.037-1.04-.343-4.081-.63-6.807a25.522 25.522 0 0 1 .413-8.056c.633-2.931 1.11-7.266-.452-10.668l-.534-1.671-14.169-.401z" fill="#181818"/>
            <path d="m79.923 98.377-.2 2.707s1.604 1.737 1.604 3.91c0 0-7.452 2.071-14.715.245 0 0 .58-.936 2.807-1.425 2.229-.49 3.43-.892 3.609-1.65.178-.757.178-2.762.49-3.163.312-.4 2.986-1.069 4.367 0 0 0 1.092-.892 2.038-.624" fill="#FFDD12"/>
            <path d="M66.514 106.868c-.05-.473-.077-1.16.098-1.629 0 0 7.33 1.826 14.715-.245v1.796a.78.78 0 0 1-.676.773c-2.015.266-8.17.928-13.556-.064a.72.72 0 0 1-.58-.63" fill="#FFF"/>
            <path d="M69.304 104.854a.327.327 0 0 1-.305-.21l-.208-.533a.327.327 0 1 1 .61-.238l.208.535a.329.329 0 0 1-.305.446M70.784 104.636a.328.328 0 0 1-.293-.181l-.343-.685a.327.327 0 0 1 .585-.292l.343.685a.327.327 0 0 1-.292.473M72.213 104.252a.329.329 0 0 1-.282-.16l-.451-.76a.326.326 0 1 1 .562-.334l.45.76a.327.327 0 0 1-.28.494M73.732 103.517a.326.326 0 0 1-.202-.07l-.91-.72a.326.326 0 1 1 .404-.513l.911.719a.326.326 0 0 1-.203.584M74.233 101.83a.34.34 0 0 1-.127-.027l-1.086-.459a.328.328 0 0 1 .255-.603l1.086.46a.327.327 0 0 1-.128.628" fill="#000"/>
            <path d="m94.508 119.864-.076 1.025c-.07.96.002 1.908.486 2.739.415.71.844 1.718.844 2.842 0 0-8.31 1.928-15.572.1 0 0-.034-.856 2.194-1.347 2.228-.49 4.901-.824 5.08-1.582.178-.757.178-2.762.49-3.163.312-.401 2.985-1.07 4.366 0 0 0 1.242-.882 2.188-.614" fill="#FFDD12"/>
            <path d="M80.166 128.313c-.05-.474-.048-1.276.024-1.742 0 0 6.985 1.303 15.573-.101v1.797a.778.778 0 0 1-.676.773c-2.014.266-8.953.896-14.34-.097a.719.719 0 0 1-.581-.63" fill="#FFF"/>
            <path d="M83.557 126.107a.327.327 0 0 1-.307-.213l-.25-.674a.328.328 0 0 1 .614-.228l.25.674a.328.328 0 0 1-.307.44M85.27 126.073a.328.328 0 0 1-.303-.201l-.403-.972a.326.326 0 1 1 .603-.251l.405.972a.328.328 0 0 1-.302.453M87.075 125.606a.33.33 0 0 1-.26-.126l-.712-.914a.328.328 0 0 1 .057-.46.328.328 0 0 1 .459.058l.713.914a.327.327 0 0 1-.257.528M88.834 124.413a.325.325 0 0 1-.135-.029l-1.302-.59a.327.327 0 1 1 .269-.596l1.304.59a.33.33 0 0 1 .163.434.328.328 0 0 1-.3.191M89.27 122.576l-.026-.001-1.593-.123a.327.327 0 1 1 .05-.652l1.592.123a.326.326 0 0 1 .301.35.326.326 0 0 1-.325.303" fill="#000"/>
            <path fill="#FFF" d="m84.434 46.024 1.337 3.476 5.792-.446-.089-6.06-5.792-.712z"/>
            <path d="m84.782 46.016 1.207 3.139 5.243-.404-.081-5.467-5.243-.646-1.126 3.378zm.771 3.828-1.466-3.812 1.37-4.108 6.341.78.097 6.652-6.342.488z" fill="#000"/>
            <path d="M81.182 33.911c-.343.573-.35 1.707-.167 2.687.183.98-.559 2.111-.865 3.181-.307 1.071-.48 4.59 1.391 5.821 1.872 1.232 4.61-.394 5.198-.828.587-.434 4.41-4.067 3.94-8.419-.469-4.352-7.629-5.568-9.497-2.442" fill="#FFF"/>
            <path d="M84.935 32.49c-1.402 0-2.794.453-3.473 1.59-.26.439-.314 1.45-.126 2.459.142.758-.182 1.551-.497 2.317-.138.337-.28.687-.375 1.014-.317 1.108-.41 4.36 1.257 5.459 1.604 1.053 4.081-.273 4.823-.82.714-.528 4.247-4.059 3.81-8.121-.233-2.169-2.205-3.353-3.972-3.741a6.853 6.853 0 0 0-1.447-.157m-1.778 13.887c-.624 0-1.243-.14-1.795-.503-1.977-1.3-1.894-4.902-1.527-6.184.105-.362.254-.727.4-1.081.29-.71.565-1.383.46-1.95-.178-.947-.216-2.209.207-2.916 1.083-1.813 3.603-2.178 5.621-1.735 1.99.435 4.211 1.796 4.481 4.31.468 4.349-3.15 8.038-4.072 8.718-.64.472-2.223 1.341-3.775 1.341" fill="#000"/>
            <path d="M80.373 34.123c-.574.747-.957 1.306-.844 1.748.139.543.916 1.366 1.379 1.23.236-.07.14-.665.676-.838 4.85-1.559 7.518 3.105 7.954 4.022 0 0 4.409-8.53-6.975-7.549 0 0-1.447.421-2.19 1.387" fill="#000"/>
            <g transform="translate(77.456 29)">
                <mask id="j" fill="#fff">
                    <use xlink:href="#h"/>
                </mask>
                <path d="M2.536 5.684s1.228-.901 3.183-1.175c1.956-.274 5.92 1.417 6.379 3.217.457 1.8-2.524 4.242-2.3 6.085.213 1.747 1.693 3.288 3.703 4.349a2.993 2.993 0 0 0 3.405-.421c2.229-2.018 6.07-6.611 3.189-12.45C16.18-2.645 7.225.699 7.225.699S6.019.47 5.566.758c-.453.287-1.091 1.217-1.091 1.217S.932 1.238.129 2.583c-.803 1.346 2.407 3.1 2.407 3.1" fill="url(#i)" mask="url(#j)"/>
            </g>
            <path d="M90.045 34.7c-.262 0-.527-.089-.755-.256-2.213-1.63-4.604-2.599-6.222-3.127a.328.328 0 0 1 .203-.622c1.663.542 4.124 1.541 6.407 3.222.144.106.314.15.464.12a.46.46 0 0 0 .299-.204c.232-.345-.05-.773-.053-.778-.581-.874-2.138-1.87-4.387-2.81a.327.327 0 1 1 .252-.604c1.675.7 3.845 1.796 4.677 3.048.019.03.535.794.053 1.51a1.113 1.113 0 0 1-.938.501M61.391 37.98c.826.327 1.697 1.123 2.467 1.99.644.729 3.185-1.383 2.788-1.81-1.914-2.056-2.747-4.321-2.747-4.321s-1.519-4.414-2.819-3.498c-.213.15-.23.468-.187.725l.404 2.398c-.026-.224-3.07-2.092-4.512-2.103-.018 0-.03-.025-.047-.025-1.325.018-1.737 1.602-1.148 2.387 1.38 1.838 3.253 3.252 5.801 4.258" fill="#FFF"/>
            <path d="M56.667 31.666c-.52.038-.77.386-.872.597-.204.416-.18.946.058 1.263 1.374 1.832 3.225 3.19 5.659 4.151.765.301 1.637 1.001 2.59 2.077.05.056.202.055.396-.003.762-.228 1.718-1.103 1.85-1.432-1.895-2.063-2.721-4.273-2.756-4.367-.41-1.193-1.323-3.16-2.035-3.39a.3.3 0 0 0-.288.046c-.054.038-.09.19-.053.404l.404 2.397h-.001a.325.325 0 0 1-.276.378.326.326 0 0 1-.337-.176c-.341-.35-3.006-1.915-4.224-1.924a.321.321 0 0 1-.115-.02m7.575 8.782c-.32 0-.515-.134-.63-.262-.883-.998-1.671-1.638-2.341-1.902-2.55-1.007-4.493-2.434-5.942-4.366-.39-.52-.437-1.3-.121-1.944a1.678 1.678 0 0 1 1.526-.966.377.377 0 0 1 .138.027c.982.056 2.886.928 3.96 1.64l-.261-1.556c-.08-.467.038-.848.322-1.047a.95.95 0 0 1 .865-.135c1.253.406 2.332 3.45 2.45 3.794.006.016.835 2.225 2.678 4.205.075.081.186.257.096.542-.214.681-1.564 1.75-2.448 1.937a1.459 1.459 0 0 1-.292.033" fill="#000"/>
            <path d="M87.197 74.384s-.936.713-1.292.668c-.356-.044-1.961-.868-3.074-.802-.901.054-3.075.513-2.897 1.136.144.504 1.159.79 2.015.717.314-.027.6.186.658.497.137.723.464 1.915 1.203 2.596 1.115 1.025 2.184 1.292 2.184 1.292l3.208-3.565-2.005-2.539z" fill="#FFF"/>
            <path d="M82.004 75.774c.45 0 .84.316.925.765.119.633.42 1.789 1.103 2.417.777.714 1.526 1.038 1.86 1.157l2.883-3.203-1.64-2.076c-.373.258-.926.586-1.271.544-.14-.018-.333-.09-.69-.227-.644-.245-1.617-.616-2.323-.574-1.003.06-2.424.469-2.594.74.105.237.834.53 1.664.46a.769.769 0 0 1 .083-.003zm4.102 5.079-.191-.048c-.047-.011-1.164-.3-2.325-1.368-.781-.718-1.14-1.906-1.304-2.776a.289.289 0 0 0-.31-.232c-.845.072-2.134-.176-2.356-.953a.611.611 0 0 1 .1-.528c.513-.724 2.684-1 3.092-1.024.848-.05 1.9.35 2.595.617.209.079.469.177.538.187.135-.002.64-.29 1.054-.604l.256-.195 2.375 3.009-3.524 3.915z" fill="#000"/>
            <path d="M28.804 21c-1.093-.7-3.66-2.644-8.403-5.59-3.868-2.405-8.759-7.248-9.627-8.209a.19.19 0 0 0-.28-.004l-3.027 3.12a.192.192 0 0 0-.007.26c.487.557 2.398 2.744 3.518 4.038 1.292 1.492 9.948 9.003 10.445 9.764.497.761 3.73 3.921 3.73 3.921l5.317-4.772L28.804 21z" fill="url(#k)" transform="translate(55 29)"/>
            <g transform="translate(77.537 47.246)">
                <mask id="n" fill="#fff">
                    <use xlink:href="#l"/>
                </mask>
                <path d="M.147 21.39c-.839-.554 2.111-11.373 3.876-14.904 1.27-2.539 1.493-3.988 2.696-4.589.551-.276 4.768-2.695 8.109-1.626 0 0 .195 2.268.49 2.606.78.891 2.347 1.01 3.432 2.495 1.692 2.317 3.519 13.01 3.319 15.75-.18 2.456-3.149 6.626-6.984 7.71-1.119.315-2.2.752-3.19 1.36h-.001a.325.325 0 0 1-.429-.082L9.592 27.6a.325.325 0 0 1 .044-.437l2.207-1.963s1.938-1.939 2.272-2.673c0 0-10.226 1.336-13.968-1.137" fill="url(#m)" mask="url(#n)"/>
            </g>
            <path d="M91.118 70.383a.328.328 0 0 1-.229-.561c.035-.034 3.092-3.137 1.384-9.252a.327.327 0 0 1 .63-.176c1.819 6.511-1.418 9.761-1.556 9.896a.326.326 0 0 1-.23.093" fill="#000"/>
            <path d="M94.668 51.162c.024.018.01.057-.02.052-.516-.078-2.57-.246-4.554 1.604-1.651 1.537-3.602 17.31-3.602 17.31l-2.59-.033s1.268-9.346 3.407-15.36c0 0 .222-.7.675-1.523a5.425 5.425 0 0 1 3.924-2.737l.042-.006c.92-.14 1.86.081 2.617.622l.1.071zM80.075 54.765c.77-1.634 1.779-3.551 2.868-5.014a2.655 2.655 0 0 1 2.075-1.073c.048-.001.075.054.043.089-.59.663-5.842 8.439-6.887 20.518 0 0-.727-.673-.87-1.428-.141-.76-.293-2.197.257-5.304.478-2.698 1.346-5.31 2.514-7.788" fill="#D9A600"/>
        </g>
        <path d="M45.063 45.143a4.999 4.999 0 0 0-3.558 6.108c.695 2.668 3.435 4.263 6.103 3.562a4.993 4.993 0 0 0 3.557-6.107 4.998 4.998 0 0 0-6.102-3.563" fill="#FFF"/>
        <g>
            <path d="M46 21.397c0-8.504-6.894-15.396-15.397-15.396s-15.397 6.892-15.397 15.396c0 8.505 6.894 15.397 15.397 15.397s15.396-6.892 15.396-15.397" fill="#FFF"/>
            <path d="M45.965 20.364c-2.573-.713-7.26-2.04-10.324-3.06-4.408-1.47-10.813-4.935-12.387-5.983-.82-.548-2.15-.894-3.24-1.102A15.444 15.444 0 0 1 22.1 8.56c2.421 1.026 8.842 4.21 10.604 4.858 1.994.735 6.717 1.575 8.396 1.89 1.237.233 2.817.863 4.235 1.6.337 1.105.55 2.26.631 3.455M34.276 25.701c3.47 1.735 7.51 1.105 10.646 1.367-.26.66-.569 1.298-.915 1.91-3.426-.097-10.302-.397-14.663-3.277-2.928-1.933-6.194-2.518-11.548-4.828-1.06-.457-1.867-.893-2.482-1.3.07-.597.175-1.183.311-1.759 2.183 1.039 5.528 2.566 7.525 3.164 3.149.944 6.929 2.624 11.126 4.723M38.634 34.536a15.319 15.319 0 0 1-8.032 2.26c-6.638 0-12.296-4.202-14.457-10.091 2.769 1.516 7.211 4.956 10.888 6.238 3.948 1.378 7.814 1.792 11.6 1.593M30.602 6c6.355 0 11.81 3.852 14.162 9.345-1.647-.757-3.674-1.613-5.239-2.03-3.149-.84-5.774-1.05-7.977-2.624-1.463-1.045-4.77-2.596-6.833-3.524A15.348 15.348 0 0 1 30.602 6" fill="#13A334"/>
            <path d="M5.558 20.827c-3.25 0-5.051-.669-5.471-2.021-.57-1.835 1.667-4.076 6.838-6.847a.883.883 0 0 1 1.199.36.888.888 0 0 1-.363 1.202c-5.22 2.798-6.09 4.414-5.983 4.758.11.351 1.78 1.2 7.807.51 5.18-.591 11.854-2.104 18.79-4.26 6.937-2.156 13.293-4.692 17.897-7.139 5.358-2.849 6.252-4.493 6.143-4.844-.115-.369-1.88-1.242-8.272-.456a.883.883 0 0 1-.988-.77.885.885 0 0 1 .772-.988c2.746-.338 4.977-.418 6.63-.24 2.055.223 3.215.853 3.55 1.928.575 1.854-1.715 4.123-7.003 6.935-4.699 2.499-11.163 5.078-18.203 7.265-7.04 2.189-13.828 3.726-19.114 4.33-1.612.185-3.021.277-4.229.277" transform="matrix(-1 0 0 1 57.194 12.854)" fill="url(#o)"/>
        </g>
        <path d="M72.333 24.016a.5.5 0 1 0 .254.967.5.5 0 0 0-.254-.967" fill="#FFF"/>
        <g>
            <g transform="matrix(-1 0 0 1 5.095 7.7)">
                <mask id="q" fill="#fff">
                    <use xlink:href="#p"/>
                </mask>
                <path d="M.921 1.603a.273.273 0 0 1-.232-.13L.04.416A.274.274 0 0 1 .506.13l.648 1.057a.274.274 0 0 1-.233.416" fill="#181818" mask="url(#q)"/>
            </g>
            <g transform="matrix(-1 0 0 1 7.363 4)">
                <mask id="s" fill="#fff">
                    <use xlink:href="#r"/>
                </mask>
                <path d="M.922 1.603a.274.274 0 0 1-.233-.13L.04.416A.272.272 0 0 1 .131.04a.273.273 0 0 1 .376.09l.647 1.057a.272.272 0 0 1-.232.416" fill="#181818" mask="url(#s)"/>
            </g>
            <path d="M4.318 6.145a.273.273 0 0 0 .14-.508l-1.051-.623a.271.271 0 0 0-.374.096.272.272 0 0 0 .095.374l1.05.623a.281.281 0 0 0 .14.038M7.995 8.325a.274.274 0 0 0 .235-.132.274.274 0 0 0-.096-.376l-1.05-.622a.272.272 0 0 0-.374.096.274.274 0 0 0 .096.374l1.05.623c.044.025.091.037.14.037" fill="#181818"/>
        </g>
        <g fill="#181818">
            <path d="M91.892 6.445a.93.93 0 0 1 .9.696.936.936 0 0 1-.664 1.14.936.936 0 0 1-1.14-.664.936.936 0 0 1 .904-1.172m-.001 2.313a1.38 1.38 0 0 0 .694-2.57 1.38 1.38 0 0 0-2.027 1.542 1.383 1.383 0 0 0 1.333 1.028"/>
        </g>
        <g>
            <path d="m47.706 87.557-.931.392a.223.223 0 0 0 .174.41l.93-.392a.223.223 0 0 0-.173-.41zm3.254-1.375-.93.392a.222.222 0 1 0 .173.41l.93-.393a.222.222 0 0 0-.173-.409zm-2.997-1.163a.222.222 0 0 0-.114.293l.4.91a.22.22 0 0 0 .294.114.223.223 0 0 0 .114-.293l-.4-.91a.223.223 0 0 0-.294-.114zm1.893 4.522a.202.202 0 0 0 .09-.02.22.22 0 0 0 .113-.292l-.4-.91a.223.223 0 0 0-.294-.114c-.113.05-.163.181-.113.293l.4.91a.223.223 0 0 0 .204.133" fill="#FFF"/>
        </g>
    </g>
</svg>
