<svg xmlns="http://www.w3.org/2000/svg" data-name="Layer 48" viewBox="0 0 47.07 47.07" id="roles-permission"><path fill="#231f20" d="M23.54 0A23.54 23.54 0 0 0 0 23.54a23.53 23.53 0 0 0 23.54 23.53 23.53 23.53 0 0 0 23.53-23.53A23.54 23.54 0 0 0 23.54 0Zm12.85 25.07a2.39 2.39 0 0 0-1.17 1.24c0 .09-.07.19-.11.28a2.5 2.5 0 0 0-.08 1.73 3.74 3.74 0 0 1 0 2.22 3.86 3.86 0 0 1-2.28 2.52l2.18 4.09a.41.41 0 0 1-.45.59l-3.85-.8a.41.41 0 0 0-.43.19l-1.22 2a.41.41 0 0 1-.72 0l-1.91-3.81a3.84 3.84 0 0 1-5.94-.31l-2.04 4.14a.4.4 0 0 1-.71 0l-1.22-2a.41.41 0 0 0-.43-.19l-3.86.8a.4.4 0 0 1-.44-.59l2.26-4.25a3.78 3.78 0 0 1-1.94-2.29 4.5 4.5 0 0 1 .05-2.44 2.49 2.49 0 0 0-.11-1.58l-.12-.28a2.37 2.37 0 0 0-1.16-1.24 3.85 3.85 0 0 1 0-6.83 2.37 2.37 0 0 0 1.16-1.24l.12-.29a2.58 2.58 0 0 0 .1-1.63 4 4 0 0 1 0-2.45 3.88 3.88 0 0 1 4.78-2.5 2.5 2.5 0 0 0 1.75-.06l.28-.12a2.48 2.48 0 0 0 1.25-1.17 3.84 3.84 0 0 1 6.82 0 2.47 2.47 0 0 0 1.24 1.17l.29.12a2.5 2.5 0 0 0 1.75.06 3.85 3.85 0 0 1 4.81 4.81 2.5 2.5 0 0 0 .07 1.75l.11.29a2.39 2.39 0 0 0 1.17 1.24 3.85 3.85 0 0 1 0 6.83Z"></path><path fill="#231f20" d="M35.46 20a4.36 4.36 0 0 1-2.09-2.27 2.29 2.29 0 0 0-.1-.23 4.57 4.57 0 0 1-.13-3.12 1.86 1.86 0 0 0-2.32-2.33 4.48 4.48 0 0 1-3.13-.14l-.24-.09a4.45 4.45 0 0 1-2.27-2.1 1.85 1.85 0 0 0-3.29 0 4.41 4.41 0 0 1-2.27 2.1l-.24.09a4.46 4.46 0 0 1-3.12.14 1.85 1.85 0 0 0-2.32 2.33 4.52 4.52 0 0 1-.14 3.12l-.1.23A4.32 4.32 0 0 1 11.61 20a1.87 1.87 0 0 0-1 1.66 1.84 1.84 0 0 0 1 1.64 4.43 4.43 0 0 1 2.09 2.27l.1.24a4.51 4.51 0 0 1 .14 3.12 1.85 1.85 0 0 0 2.32 2.32 4.78 4.78 0 0 1 1.39-.21 4.42 4.42 0 0 1 1.73.35l.24.09a4.46 4.46 0 0 1 2.27 2.1 1.85 1.85 0 0 0 3.29 0 4.49 4.49 0 0 1 2.27-2.1l.24-.09a4.6 4.6 0 0 1 3.13-.14 1.83 1.83 0 0 0 1.86-.46 1.86 1.86 0 0 0 .46-1.86 4.57 4.57 0 0 1 .13-3.12l.1-.24a4.43 4.43 0 0 1 2.09-2.27 1.85 1.85 0 0 0 1-1.64 1.88 1.88 0 0 0-1-1.66Zm-6.23-1-6.68 6.68a1 1 0 0 1-1.41 0l-3.3-3.3a1 1 0 1 1 1.41-1.41l2.6 2.6 6-6a1 1 0 0 1 1.4 0 1 1 0 0 1-.02 1.45Z"></path></svg>