<svg width="36" height="36" xmlns="http://www.w3.org/2000/svg">
    <g fill="none" fill-rule="evenodd">
        <circle fill="#E2F0FF" cx="18" cy="18" r="18"/>
        <path d="m9.79 24.477 1.733 1.733-1.592.188a.296.296 0 0 1-.329-.329l.188-1.592zm1.292-4.174 4.615 4.615a3.923 3.923 0 0 1-2.251 1.064l-1.268.15-2.31-2.31.15-1.268c.1-.847.475-1.636 1.064-2.251zm8.337-8.342 4.62 4.62-7.663 7.664-4.62-4.621 7.663-7.663zm1.803-1.803a1.919 1.919 0 0 1 2.704 0l1.916 1.916c.744.743.744 1.96 0 2.704l-1.127 1.127-4.62-4.62z" fill="#3395FF"/>
    </g>
</svg>
