<svg xmlns="http://www.w3.org/2000/svg" xmlns:xlink="http://www.w3.org/1999/xlink" viewBox="0 0 1610.54 1080"><defs><style>.cls-1{isolation:isolate;}.cls-14,.cls-15,.cls-19,.cls-2,.cls-30,.cls-33,.cls-36,.cls-37,.cls-46,.cls-47,.cls-48{mix-blend-mode:multiply;}.cls-2{fill:url(#linear-gradient);}.cls-3{fill:#130687;}.cls-4{fill:url(#linear-gradient-2);}.cls-5{fill:#f6f6fb;}.cls-6{fill:#f1f1f6;}.cls-7{fill:#dae0f5;}.cls-8{fill:#0b0bb7;}.cls-9{fill:url(#linear-gradient-3);}.cls-10{fill:#fff;}.cls-11{fill:#dfe4f4;}.cls-12{fill:#8aa8ff;}.cls-13{fill:#deebff;}.cls-14{fill:url(#linear-gradient-4);}.cls-15{fill:url(#linear-gradient-5);}.cls-16{fill:#bbc0e6;}.cls-17{fill:#e8ecf7;}.cls-18{fill:url(#linear-gradient-6);}.cls-19{fill:url(#linear-gradient-7);}.cls-20{fill:#0e0ea5;}.cls-21{fill:#6b67e9;}.cls-22{fill:#5652cc;}.cls-23{fill:url(#linear-gradient-8);}.cls-24{fill:url(#linear-gradient-9);}.cls-25{fill:url(#linear-gradient-10);}.cls-26{fill:url(#linear-gradient-11);}.cls-27{fill:url(#linear-gradient-12);}.cls-28{fill:url(#linear-gradient-13);}.cls-29{fill:#ced3f8;}.cls-30{fill:url(#linear-gradient-14);}.cls-31{fill:url(#linear-gradient-15);}.cls-32{fill:#807dfb;}.cls-33{fill:url(#linear-gradient-16);}.cls-34{fill:#ff8500;}.cls-35{fill:#ffb533;}.cls-36{fill:url(#linear-gradient-17);}.cls-37{fill:url(#linear-gradient-18);}.cls-38{fill:url(#linear-gradient-19);}.cls-39{fill:#121047;}.cls-40{fill:#fcd1a9;}.cls-41{fill:url(#linear-gradient-20);}.cls-42{fill:#f2c39d;}.cls-43{fill:url(#linear-gradient-21);}.cls-44{fill:#20196f;}.cls-45{fill:#ff9831;}.cls-46{fill:url(#linear-gradient-22);}.cls-47{fill:url(#linear-gradient-23);}.cls-48{fill:url(#linear-gradient-24);}.cls-49{fill:url(#linear-gradient-25);}.cls-50{fill:#090299;}</style><linearGradient id="linear-gradient" x1="350.66" y1="736.5" x2="1512.73" y2="736.5" gradientUnits="userSpaceOnUse"><stop offset="0" stop-color="#c4c9e4"/><stop offset="0.24" stop-color="#cacee7"/><stop offset="0.54" stop-color="#daddee"/><stop offset="0.88" stop-color="#f4f5fa"/><stop offset="1" stop-color="#fff"/></linearGradient><linearGradient id="linear-gradient-2" x1="858.75" y1="-57.14" x2="1321.47" y2="744.3" gradientUnits="userSpaceOnUse"><stop offset="0.57" stop-color="#0b0bb7"/><stop offset="0.61" stop-color="#1f196f"/></linearGradient><linearGradient id="linear-gradient-3" x1="325.5" y1="837.38" x2="1266.04" y2="837.38" xlink:href="#linear-gradient-2"/><linearGradient id="linear-gradient-4" x1="66.17" y1="369.14" x2="126.73" y2="369.14" gradientTransform="translate(175.51)" gradientUnits="userSpaceOnUse"><stop offset="0" stop-color="#c4cae8"/><stop offset="0.24" stop-color="#d5daef"/><stop offset="0.73" stop-color="#f4f5fb"/><stop offset="1" stop-color="#fff"/></linearGradient><linearGradient id="linear-gradient-5" x1="177.2" y1="485.82" x2="840.47" y2="485.82" gradientUnits="userSpaceOnUse"><stop offset="0" stop-color="#d1d7f3"/><stop offset="0.73" stop-color="#fff"/></linearGradient><linearGradient id="linear-gradient-6" x1="5653.69" y1="330.72" x2="5729.53" y2="462.09" gradientTransform="matrix(-1, 0, 0, 1, 5833.42, 0)" gradientUnits="userSpaceOnUse"><stop offset="0.67" stop-color="#ced3f8"/><stop offset="0.73" stop-color="#c5caf0"/><stop offset="0.9" stop-color="#acb2d9"/><stop offset="1" stop-color="#a3a9d0"/></linearGradient><linearGradient id="linear-gradient-7" x1="51.47" y1="277.17" x2="144.38" y2="277.17" gradientTransform="translate(112.49)" xlink:href="#linear-gradient-4"/><linearGradient id="linear-gradient-8" x1="5546.6" y1="424.04" x2="5559.19" y2="424.04" gradientTransform="matrix(-1, 0, 0, 1, 5833.42, 0)" gradientUnits="userSpaceOnUse"><stop offset="0" stop-color="#423eaf"/><stop offset="0.37" stop-color="#322d91"/><stop offset="0.76" stop-color="#241e78"/><stop offset="1" stop-color="#1f196f"/></linearGradient><linearGradient id="linear-gradient-9" x1="5546.6" y1="435.75" x2="5559.19" y2="435.75" gradientTransform="matrix(-1, 0, 0, 1, 5833.42, 0)" gradientUnits="userSpaceOnUse"><stop offset="0" stop-color="#5652cc"/><stop offset="0.15" stop-color="#4b47ba"/><stop offset="0.52" stop-color="#332e91"/><stop offset="0.82" stop-color="#241f78"/><stop offset="1" stop-color="#1f196f"/></linearGradient><linearGradient id="linear-gradient-10" x1="5533.45" y1="339.83" x2="5571.22" y2="339.83" gradientTransform="matrix(-1, 0, 0, 1, 5833.42, 0)" gradientUnits="userSpaceOnUse"><stop offset="0" stop-color="#6b67e9"/><stop offset="0.31" stop-color="#4e49ba"/><stop offset="0.61" stop-color="#342f91"/><stop offset="0.85" stop-color="#251f78"/><stop offset="1" stop-color="#1f196f"/></linearGradient><linearGradient id="linear-gradient-11" x1="5559.19" y1="365.08" x2="5571.28" y2="365.08" xlink:href="#linear-gradient-9"/><linearGradient id="linear-gradient-12" x1="5546.6" y1="376.68" x2="5572.34" y2="376.68" xlink:href="#linear-gradient-8"/><linearGradient id="linear-gradient-13" x1="5540.88" y1="409.36" x2="5559.19" y2="409.36" xlink:href="#linear-gradient-8"/><linearGradient id="linear-gradient-14" x1="1371.98" y1="992.2" x2="1203.7" y2="992.2" gradientUnits="userSpaceOnUse"><stop offset="0" stop-color="#fff"/><stop offset="0.33" stop-color="#f4f5fc"/><stop offset="0.91" stop-color="#d6dcf4"/><stop offset="1" stop-color="#d1d7f3"/></linearGradient><linearGradient id="linear-gradient-15" x1="1096.22" y1="1003.26" x2="1311.16" y2="1003.26" gradientUnits="userSpaceOnUse"><stop offset="0.4" stop-color="#ced3f8"/><stop offset="0.55" stop-color="#bec3e9"/><stop offset="0.57" stop-color="#bbc0e6"/></linearGradient><linearGradient id="linear-gradient-16" x1="1384.8" y1="852.74" x2="1579.54" y2="852.74" gradientUnits="userSpaceOnUse"><stop offset="0.43" stop-color="#c4c9e4"/><stop offset="0.58" stop-color="#d7daed"/><stop offset="0.85" stop-color="#f4f5fa"/><stop offset="1" stop-color="#fff"/></linearGradient><linearGradient id="linear-gradient-17" x1="739.65" y1="1030.82" x2="1002.43" y2="1030.82" gradientTransform="translate(-181.71)" gradientUnits="userSpaceOnUse"><stop offset="0" stop-color="#c4cae8"/><stop offset="0.09" stop-color="#ced3ec"/><stop offset="0.41" stop-color="#e9ebf6"/><stop offset="0.69" stop-color="#f9fafd"/><stop offset="0.9" stop-color="#fff"/></linearGradient><linearGradient id="linear-gradient-18" x1="555.31" y1="961.13" x2="818.06" y2="961.13" gradientTransform="translate(-114.98)" xlink:href="#linear-gradient-17"/><linearGradient id="linear-gradient-19" x1="2996.44" y1="951.85" x2="3093.3" y2="951.85" gradientTransform="matrix(-1, 0, 0, 1, 3503.47, 0)" gradientUnits="userSpaceOnUse"><stop offset="0" stop-color="#423eaf"/><stop offset="0.3" stop-color="#3a35a0"/><stop offset="0.89" stop-color="#241e77"/><stop offset="1" stop-color="#1f196f"/></linearGradient><linearGradient id="linear-gradient-20" x1="2876.68" y1="1021.56" x2="2973.53" y2="1021.56" xlink:href="#linear-gradient-19"/><linearGradient id="linear-gradient-21" x1="2912.31" y1="491.31" x2="3086.24" y2="491.31" gradientTransform="matrix(-1, 0, 0, 1, 3503.47, 0)" gradientUnits="userSpaceOnUse"><stop offset="0" stop-color="#ff8500"/><stop offset="0.02" stop-color="#ff8702"/><stop offset="0.38" stop-color="#ffa01d"/><stop offset="0.69" stop-color="#ffb02d"/><stop offset="0.94" stop-color="#ffb533"/></linearGradient><linearGradient id="linear-gradient-22" x1="200.49" y1="626.21" x2="251.29" y2="626.21" gradientUnits="userSpaceOnUse"><stop offset="0" stop-color="#c4cae8"/><stop offset="1" stop-color="#dae0f5"/></linearGradient><linearGradient id="linear-gradient-23" x1="78.15" y1="690.38" x2="233.23" y2="690.38" gradientUnits="userSpaceOnUse"><stop offset="0" stop-color="#c4cae8"/><stop offset="0.25" stop-color="#cdd2eb"/><stop offset="0.65" stop-color="#e4e7f5"/><stop offset="1" stop-color="#fff"/></linearGradient><linearGradient id="linear-gradient-24" x1="233.52" y1="626.21" x2="321.77" y2="626.21" xlink:href="#linear-gradient-23"/><linearGradient id="linear-gradient-25" x1="98.19" y1="723.23" x2="98.2" y2="723.23" gradientUnits="userSpaceOnUse"><stop offset="0" stop-color="#c4cae8"/><stop offset="1" stop-color="#fff"/></linearGradient></defs><g class="cls-1"><g id="Layer_1" data-name="Layer 1"><path class="cls-2" d="M1512.73,483.44l-29.25-16.89c-8.72-5-30.13-9.16-47.57-9.16H740C722.56,457.39,357.2,686,357.2,686c-8.72,5-8.72,13.28,0,18.32l532.68,307.54a32.6,32.6,0,0,0,16,3.78h13.85l375-216.51,15.48-8.94h202.55Z"/><path class="cls-3" d="M1273.51,764.44c0,10.07-7.14,14.19-15.86,9.15L725,466.05c-8.72-5-15.85-17.39-15.85-27.46V36.8c0-10.06,7.13-14.18,15.85-9.15L1257.65,335.2c8.72,5,15.86,17.39,15.86,27.46Z"/><path class="cls-4" d="M1269.62,328.28,736.94,20.74c-4.42-2.55-8.42-2.74-11.31-1h0l-11.39,6.6h0c2.82-1.37,6.57-1.06,10.69,1.32L1257.65,335.2c8.72,5,15.86,17.39,15.86,27.46V764.44c0,5-1.77,8.53-4.6,10.21h0L1280.3,768h0c3.19-1.51,5.22-5.16,5.22-10.51V355.75C1285.48,345.68,1278.34,333.32,1269.62,328.28Z"/><polygon class="cls-5" points="1257.65 748.98 724.96 441.44 724.96 45.96 1257.65 353.5 1257.65 748.98"/><path class="cls-6" d="M896.43,989.1c-8.72,5-23,5-31.71,0L332,681.56c-8.71-5-8.71-13.27,0-18.31L695.12,453.62c8.72-5,23-5,31.71,0l532.69,307.55c8.72,5,8.72,13.27,0,18.31Z"/><polygon class="cls-7" points="727.39 497.24 701.34 482.2 714.37 474.68 740.42 489.72 727.39 497.24"/><polygon class="cls-7" points="771.27 522.57 745.21 507.53 758.24 500.01 784.29 515.05 771.27 522.57"/><polygon class="cls-7" points="815.14 547.9 789.09 532.86 802.12 525.34 828.17 540.38 815.14 547.9"/><polygon class="cls-7" points="859.01 573.24 832.97 558.2 846 550.67 872.04 565.71 859.01 573.24"/><polygon class="cls-7" points="902.89 598.56 876.84 583.53 889.87 576.01 915.92 591.05 902.89 598.56"/><polygon class="cls-7" points="946.77 623.9 920.72 608.86 933.74 601.34 959.79 616.37 946.77 623.9"/><polygon class="cls-7" points="990.64 649.23 964.6 634.19 977.62 626.67 1003.66 641.71 990.64 649.23"/><polygon class="cls-7" points="1034.52 674.56 1008.47 659.52 1021.5 652 1047.55 667.04 1034.52 674.56"/><polygon class="cls-7" points="1078.39 699.89 1052.35 684.85 1065.37 677.33 1091.42 692.37 1078.39 699.89"/><polygon class="cls-7" points="1122.27 725.22 1096.22 710.18 1109.25 702.66 1135.3 717.7 1122.27 725.22"/><polygon class="cls-7" points="1166.15 750.56 1140.1 735.51 1153.13 727.99 1179.18 743.04 1166.15 750.56"/><polygon class="cls-7" points="1210.03 775.89 1183.97 760.84 1197 753.32 1223.05 768.37 1210.03 775.89"/><polygon class="cls-7" points="704.3 534.57 657.47 507.53 683.51 492.49 730.35 519.53 704.3 534.57"/><polygon class="cls-7" points="680.07 569.14 615.41 531.8 641.47 516.77 706.13 554.1 680.07 569.14"/><polygon class="cls-7" points="654.02 604.76 571.54 557.14 597.59 542.11 680.06 589.72 654.02 604.76"/><polygon class="cls-7" points="565.28 614.83 518.44 587.8 553.71 567.43 600.54 594.47 565.28 614.83"/><polygon class="cls-7" points="629.94 652.17 583.1 625.13 618.37 604.76 665.21 631.8 629.94 652.17"/><polygon class="cls-7" points="694.6 689.5 647.76 662.46 683.03 642.1 729.87 669.14 694.6 689.5"/><polygon class="cls-7" points="917.54 818.22 870.71 791.18 905.98 770.82 952.82 797.86 917.54 818.22"/><polygon class="cls-7" points="1027.12 881.49 935.26 828.44 970.53 808.09 1062.39 861.12 1027.12 881.49"/><polygon class="cls-7" points="852.99 780.95 712.43 699.79 747.69 679.43 888.26 760.59 852.99 780.95"/><polygon class="cls-7" points="760.45 566.99 722.13 544.86 748.17 529.82 786.5 551.95 760.45 566.99"/><polygon class="cls-7" points="736.22 601.56 697.89 579.43 723.95 564.39 762.27 586.51 736.22 601.56"/><polygon class="cls-7" points="711.37 636.49 673.04 614.37 699.1 599.32 737.43 621.46 711.37 636.49"/><polygon class="cls-7" points="767.53 668.91 729.2 646.78 755.25 631.74 793.58 653.87 767.53 668.91"/><polygon class="cls-7" points="823.68 701.33 785.35 679.2 811.4 664.17 849.73 686.29 823.68 701.33"/><polygon class="cls-7" points="879.84 733.75 841.51 711.63 867.56 696.58 905.88 718.71 879.84 733.75"/><polygon class="cls-7" points="935.99 766.17 897.66 744.04 923.71 729 962.04 751.14 935.99 766.17"/><polygon class="cls-7" points="992.14 798.59 953.81 776.47 979.86 761.42 1018.19 783.55 992.14 798.59"/><polygon class="cls-7" points="1081.42 850.14 1009.97 808.88 1036.01 793.85 1107.47 835.1 1081.42 850.14"/><polygon class="cls-7" points="792.38 633.98 754.05 611.86 780.1 596.81 818.43 618.94 792.38 633.98"/><polygon class="cls-7" points="848.53 666.4 810.21 644.27 836.25 629.23 874.59 651.36 848.53 666.4"/><polygon class="cls-7" points="904.68 698.82 866.36 676.7 892.41 661.65 930.74 683.78 904.68 698.82"/><polygon class="cls-7" points="960.84 731.25 922.51 709.12 948.57 694.07 986.89 716.2 960.84 731.25"/><polygon class="cls-7" points="1017 763.66 978.66 741.53 1004.72 726.49 1043.05 748.62 1017 763.66"/><polygon class="cls-7" points="1124.09 825.5 1034.82 773.96 1060.87 758.91 1150.15 810.45 1124.09 825.5"/><polygon class="cls-7" points="816.61 599.41 778.28 577.28 804.33 562.25 842.65 584.38 816.61 599.41"/><polygon class="cls-7" points="872.76 631.83 834.43 609.7 860.48 594.66 898.81 616.79 872.76 631.83"/><polygon class="cls-7" points="928.91 664.25 890.59 642.12 916.64 627.09 954.96 649.21 928.91 664.25"/><polygon class="cls-7" points="985.07 696.67 946.74 674.54 972.78 659.5 1011.12 681.64 985.07 696.67"/><polygon class="cls-7" points="1041.22 729.09 1002.89 706.96 1028.94 691.93 1067.27 714.05 1041.22 729.09"/><polygon class="cls-7" points="1097.37 761.51 1059.05 739.38 1085.1 724.35 1123.43 746.47 1097.37 761.51"/><polygon class="cls-7" points="1166.15 801.22 1115.2 771.81 1141.25 756.76 1192.2 786.18 1166.15 801.22"/><polygon class="cls-8" points="1191 736.21 770.07 493.18 782.71 485.88 1203.64 728.91 1191 736.21"/><polygon class="cls-7" points="852.98 812.35 638.18 688.33 504.71 765.39 719.51 889.41 852.98 812.35"/><path class="cls-9" d="M1259.52,779.48,896.43,989.1c-6.93,4-17.34,4.82-25.71,2.46-.06,0-5.2-2-6-2.46L332,681.56a17.88,17.88,0,0,1-1.67-1.1l-.09-.06h0l-.39-.32a10.74,10.74,0,0,1-.88-.74l-.41-.38c-.33-.33-.63-.66-.91-1l-.11-.12-.06-.08a11.55,11.55,0,0,1-.83-1.23,8.27,8.27,0,0,1-1.16-3.81h0v7.68h.06c-.05,3.35,2.07,6.71,6.47,9.25L864.72,997.19c12.71,6.3,30.87,5.07,36.28,3.89s10.26-2.54,15.93-3.77l342.59-197.79c4.41-2.56,6.58-5.92,6.52-9.27V770.42C1266,773.7,1263.83,777,1259.52,779.48Z"/><polygon class="cls-10" points="1227.12 559.79 1205.17 547.12 1205.17 484.3 1227.12 496.97 1227.12 559.79"/><polygon class="cls-11" points="1221.74 493.87 1210.54 487.4 1210.54 382.23 1221.74 388.69 1221.74 493.87"/><polygon class="cls-11" points="1221.74 680.26 1210.54 673.8 1210.54 550.22 1221.74 556.69 1221.74 680.26"/><path class="cls-12" d="M1393.15,179.4l9.33-5.37c4.64-2.36,3.51-3.14-1.11-22.22-.9-3.73-3.88-7.21-6.66-7.77-7.12-1.44-8.31-.81-12.08-8.8-1.4-3-1.41-5.89-.05-7.27l3.21-3.25c1.72-1.74,1.19-5.86-1.17-9.2-16.48-23.34-12.54-19.38-24.06-13.53-1.63-.62-2.53-1.71-4.1-3.16-4.47-4.14-3.76-8.56-3.76-14.28a11.66,11.66,0,0,0-5.28-9.15c-15-8.69-14.17-9.05-17.69-6.71l-2.14,1.23s-8.72,5-9.2,5.28l-3.18-6.88c-1.71-3.72-5-6.23-7.38-5.61-9.37,2.45-10.45,2.47-12.3,3.84l-25.24,14.5c-2.42,1.36-2.07,4.63-1.09,7.1-.11.08-13.26,7.63-13.26,7.63-2.27,1.35-1.34-.07-5.93,13.59-.9,2.69.61,7,3.39,9.65,4.82,4.59,8,6.84,8.69,11.6l-8.26,4.75c-5.93,3-4.84,2.71,0,22.84.9,3.73,3.88,7.21,6.66,7.77,7.13,1.44,8.3.81,12.08,8.8,1.39,2.95,1.41,5.9,0,7.28l-3.2,3.24c-1.72,1.74-1.2,5.86,1.17,9.2,16.5,23.38,12.51,19.35,24.06,13.54,1.62.62,2.52,1.69,4.1,3.16,4.47,4.14,3.75,8.56,3.75,14.27a11.67,11.67,0,0,0,5.29,9.15l12.48,7.21c3.4,2,3.35.08,16.55-7l3.17,6.87c1.72,3.72,5,6.23,7.38,5.61,8.33-2.17,10.57-2.34,13.65-4.61l24.16-13.88c1.72-1,2.07-3.82.83-6.95.11-.08,13.25-7.63,13.25-7.63,2.27-1.35,1.33.12,5.94-13.59.9-2.68-.62-7-3.39-9.65C1397.06,186.45,1393.87,184.18,1393.15,179.4Zm-82.4-53.64c19.51,8.84,35.87,37.27,33.73,58.51C1325,175.44,1308.61,147.06,1310.75,125.76Z"/><path class="cls-13" d="M1374.72,206.59l-5.14-4.9a11.8,11.8,0,0,1-3.66-8c0-.29,0-.6,0-.9s0-.61,0-.91c0-2.72,1.44-4.26,3.66-3.82l5.14,1c2.78.57,4.3-2,3.39-5.73l-3.86-15.94c-.9-3.72-3.88-7.2-6.66-7.76l-5.19-1c-2.2-.45-4.62-2.77-6-5.73-.3-.68-.61-1.35-.93-2-1.39-2.94-1.41-5.89,0-7.27l3.21-3.25c1.71-1.73,1.19-5.85-1.17-9.2l-10.11-14.3c-2.36-3.35-5.66-4.65-7.38-2.92l-3.18,3.23c-1.36,1.37-3.78.87-6-1.25l-1.54-1.45a11.84,11.84,0,0,1-3.75-8v-6.26A11.7,11.7,0,0,0,1320.3,91l-12.48-7.21c-2.92-1.68-5.29-.32-5.29,3.06v6.26c0,2.69-1.52,4.18-3.75,3.68-.52-.12-1-.23-1.53-.32-2.19-.42-4.61-2.7-6-5.64l-3.18-6.9c-1.72-3.72-5-6.23-7.38-5.61l-10.1,2.64c-2.37.62-2.89,4.13-1.17,7.85l3.2,6.95c1.37,3,1.35,5.88,0,7.22-.32.31-.63.62-.93,1-1.34,1.42-3.75,1-6-1.15l-5.19-5c-2.78-2.64-5.76-2.61-6.66.08L1250,109.37c-.9,2.69.61,7,3.39,9.65l5.15,4.9a11.81,11.81,0,0,1,3.65,8c0,.3,0,.6,0,.91s0,.6,0,.91c0,2.72-1.44,4.26-3.65,3.81l-5.15-1c-2.78-.56-4.29,2-3.39,5.73l3.86,15.94c.9,3.73,3.88,7.21,6.66,7.77l5.19,1.05c2.21.44,4.63,2.77,6,5.73.3.68.61,1.35.93,2,1.39,2.95,1.41,5.9,0,7.28l-3.2,3.24c-1.72,1.74-1.2,5.86,1.17,9.2l10.1,14.31c2.36,3.35,5.66,4.65,7.38,2.91l3.18-3.22c1.36-1.37,3.78-.87,6,1.25.5.49,1,1,1.53,1.45a11.8,11.8,0,0,1,3.75,8v6.26a11.67,11.67,0,0,0,5.29,9.15l12.48,7.21c2.92,1.69,5.29.32,5.29-3.05v-6.26c0-2.69,1.52-4.19,3.75-3.68.52.12,1,.23,1.54.32,2.19.41,4.6,2.7,6,5.64l3.18,6.9c1.72,3.72,5,6.23,7.38,5.61l10.11-2.64c2.36-.62,2.88-4.13,1.17-7.85l-3.21-6.95c-1.37-3-1.35-5.88,0-7.22.32-.31.63-.62.93-1,1.34-1.42,3.75-1,6,1.15l5.19,4.94c2.78,2.65,5.76,2.62,6.66-.07l3.86-11.48C1379,213.55,1377.5,209.23,1374.72,206.59Zm-60.66-8.44c-16.91-9.76-30.61-33.5-30.61-53s13.7-27.43,30.61-17.67,30.61,33.5,30.61,53S1331,207.91,1314.06,198.15Z"/><path class="cls-12" d="M1482,333.54l6.93-4c3.44-1.76,2.6-2.34-.83-16.51-.66-2.76-2.88-5.34-4.94-5.76-5.29-1.07-6.17-.6-9-6.54-1-2.18-1-4.37,0-5.39l2.38-2.42c1.27-1.28.88-4.34-.87-6.83-12.23-17.32-9.31-14.38-17.86-10a9.64,9.64,0,0,1-3-2.35c-3.31-3.07-2.78-6.35-2.78-10.59a8.66,8.66,0,0,0-3.93-6.8c-11.17-6.45-10.51-6.72-13.13-5l-1.59.91s-6.47,3.73-6.83,3.92l-2.36-5.1c-1.27-2.76-3.72-4.63-5.48-4.17-7,1.82-7.76,1.83-9.13,2.85-.06,0-18.69,10.73-18.74,10.77-1.79,1-1.53,3.43-.81,5.27l-9.84,5.66c-1.68,1-1,0-4.4,10.09-.67,2,.45,5.2,2.52,7.16,3.57,3.41,5.91,5.08,6.45,8.62-.06,0-6.08,3.48-6.13,3.52-4.41,2.25-3.6,2,0,17,.67,2.77,2.88,5.35,4.94,5.76,5.3,1.08,6.17.61,9,6.54,1,2.19,1,4.38,0,5.4l-2.38,2.41c-1.28,1.29-.89,4.35.86,6.83,12.26,17.36,9.29,14.37,17.87,10.05a9.68,9.68,0,0,1,3,2.34c3.32,3.08,2.79,6.36,2.79,10.6a8.7,8.7,0,0,0,3.92,6.8l9.27,5.35c2.52,1.45,2.48.05,12.29-5.2l2.35,5.1c1.27,2.76,3.73,4.63,5.48,4.17,6.18-1.62,7.85-1.74,10.13-3.43l17.94-10.31c1.27-.71,1.53-2.83.61-5.15.08-.06,9.84-5.67,9.84-5.67,1.68-1,1,.09,4.41-10.08.67-2-.46-5.21-2.52-7.17C1484.9,338.77,1482.54,337.09,1482,333.54Zm-61.17-39.82c14.49,6.56,26.63,27.67,25,43.43C1431.43,330.6,1419.24,309.53,1420.83,293.72Z"/><path class="cls-13" d="M1468.32,353.72l-3.82-3.64a8.74,8.74,0,0,1-2.71-6c0-.22,0-.44,0-.67s0-.45,0-.68c0-2,1.07-3.16,2.71-2.83l3.82.77c2.06.42,3.19-1.48,2.52-4.25L1468,324.63c-.67-2.77-2.89-5.35-5-5.77l-3.85-.78c-1.64-.33-3.44-2.06-4.43-4.25-.22-.51-.46-1-.69-1.51-1-2.18-1-4.37,0-5.39l2.38-2.41c1.27-1.29.88-4.35-.87-6.83l-7.5-10.63c-1.75-2.48-4.21-3.45-5.48-2.16l-2.36,2.39c-1,1-2.8.65-4.43-.92l-1.14-1.08a8.78,8.78,0,0,1-2.78-5.94V274.7a8.66,8.66,0,0,0-3.93-6.8l-9.27-5.35c-2.16-1.25-3.92-.24-3.92,2.26v4.65c0,2-1.13,3.11-2.79,2.73l-1.13-.23c-1.63-.31-3.42-2-4.43-4.19l-2.36-5.12c-1.28-2.76-3.73-4.63-5.49-4.17l-7.5,2c-1.75.46-2.14,3.07-.86,5.83l2.38,5.16c1,2.19,1,4.37,0,5.36-.24.23-.47.46-.7.7-1,1.06-2.78.71-4.42-.85l-3.86-3.67c-2.06-2-4.27-1.94-4.94,0l-2.86,8.53c-.67,2,.45,5.2,2.52,7.16l3.81,3.64a8.75,8.75,0,0,1,2.72,6c0,.22,0,.44,0,.67s0,.45,0,.67c0,2-1.07,3.17-2.72,2.84l-3.81-.78c-2.07-.41-3.19,1.49-2.52,4.26l2.86,11.83c.67,2.77,2.88,5.35,4.94,5.76l3.86.78c1.64.34,3.43,2.06,4.42,4.26.23.5.46,1,.7,1.5,1,2.19,1,4.38,0,5.4l-2.38,2.41c-1.28,1.29-.89,4.35.86,6.83l7.5,10.62c1.76,2.49,4.21,3.45,5.48,2.17l2.37-2.4c1-1,2.8-.64,4.43.93l1.13,1.07a8.79,8.79,0,0,1,2.79,5.95v4.65a8.7,8.7,0,0,0,3.92,6.8l9.27,5.35c2.17,1.25,3.93.24,3.93-2.27V373c0-2,1.13-3.1,2.78-2.73l1.14.24c1.63.31,3.42,2,4.43,4.19l2.36,5.12c1.27,2.76,3.73,4.63,5.48,4.17l7.5-2c1.75-.45,2.14-3.06.87-5.82L1454,371c-1-2.2-1-4.37,0-5.37.23-.22.47-.46.69-.7,1-1.05,2.79-.71,4.43.85l3.85,3.68c2.06,2,4.28,1.94,5-.06l2.86-8.52C1471.51,358.89,1470.38,355.69,1468.32,353.72Zm-45-6.26c-12.55-7.25-22.73-24.87-22.73-39.36s10.18-20.37,22.73-13.12S1446,319.85,1446,334.34,1435.84,354.71,1423.29,347.46Z"/><polygon class="cls-14" points="241.69 377.8 284.79 377.8 302.25 367.72 289.72 360.49 241.69 360.49 241.69 377.8"/><path class="cls-15" d="M840.47,439.39l-75.41-43.54H559.51c-130.48,0-289.14,30.54-354.38,68.2-30.41,17.56-35.13,33.56-18.33,45.64h0a56,56,0,0,0,8.71,5l66.69,38.49h0c19.25,13.86,66.77,22.57,136.45,22.57H604.22Z"/><path class="cls-16" d="M398.65,184.31V303c0,75.33-52.89,166.93-118.12,204.6s-118.13,7.13-118.13-68.2V320.71Z"/><path class="cls-5" d="M203.52,344.46c5.84-10.11,5.84-21,0-24.4s-15.29,2.09-21.12,12.2-5.84,21,0,24.39S197.69,354.55,203.52,344.46Z"/><rect class="cls-16" x="189.56" y="327.98" width="6.8" height="20.76" transform="translate(-196.54 336.36) rotate(-60.01)"/><path class="cls-5" d="M357.53,231.14c5.83-10.1,15.29-15.56,21.12-12.2s5.84,14.29,0,24.4-15.29,15.57-21.12,12.19S351.69,241.25,357.53,231.14Z"/><rect class="cls-16" x="364.69" y="226.87" width="6.8" height="20.75" transform="translate(-21.38 437.46) rotate(-60.01)"/><polygon class="cls-17" points="323.25 140.77 87 277.18 162.4 320.71 398.65 184.31 323.25 140.77"/><path class="cls-18" d="M162.4,320.71V439.39c0,37.45,13.08,63.81,34.23,76.24l-73.39-42.39.07,0C100.94,461.32,87,434.51,87,395.85V277.18Z"/><polygon class="cls-19" points="163.96 288.16 218.77 288.16 237.8 277.18 256.87 266.17 163.96 266.17 163.96 288.16"/><path class="cls-20" d="M253.13,60.09c49.25-28.43,89.17-5.37,89.17,51.48V185.2l-20.61,11.9V123.47c0-43.65-30.76-61.4-68.56-39.58S184.57,159,184.57,202.65v73.62L164,288.16V214.54C164,157.68,203.88,88.53,253.13,60.09Z"/><path class="cls-21" d="M316.51,54.05h0l-.14-.09Z"/><path class="cls-22" d="M321.69,123.47v73.64L301.08,185.2V111.57c0-15.77-4.05-28.1-11-36.47C309.08,78.24,321.69,95.55,321.69,123.47Z"/><path class="cls-8" d="M232.53,48.2C257.06,34,279.27,32.65,295.4,41.86h0l.13.08.08,0L316,53.75c-16.13-9.2-38.34-7.82-62.87,6.35C203.88,88.53,164,157.68,164,214.54v73.62l-20.61-11.89V202.65C143.35,145.78,183.28,76.63,232.53,48.2Z"/><polygon class="cls-23" points="286.83 435.75 274.23 428.48 274.23 412.33 286.83 419.6 286.83 435.75"/><polygon class="cls-24" points="280.53 439.39 274.23 443.03 274.23 428.48 286.83 435.75 280.53 439.39"/><path class="cls-25" d="M280.53,321.14C291.27,314.93,300,320,300,332.36c0,9.86-5.5,21.38-13.14,28.82L262.2,347C264.81,336.62,272,326.08,280.53,321.14Z"/><path class="cls-26" d="M262.15,361.48l12.08,7C268.56,369.48,264.09,366.89,262.15,361.48Z"/><path class="cls-27" d="M274.23,368.46l-12.08-7a19.62,19.62,0,0,1-1.07-6.66A32.61,32.61,0,0,1,262.2,347l24.63,14.21v45.21l-12.6-7.27Z"/><path class="cls-28" d="M286.83,406.39c3.15-1.82,5.72-.35,5.72,3.31a12.64,12.64,0,0,1-5.72,9.9l-12.6-7.27V399.12Z"/><path class="cls-20" d="M1139,465.19,814.14,277.64c-17.09-9.87-42.47-47.86-42.47-70.64V193.17c0-22.77,13.85-33.25,30.93-23.38L1139,368.88c17.08,9.86,30.92,36.32,30.92,59.1v13.83C1169.92,464.59,1156.08,475.05,1139,465.19Z"/><path class="cls-10" d="M848.43,248.13c0-3.82,2.68-5.36,6-3.45a13.23,13.23,0,0,1,6,10.37c0,3.82-2.68,5.36-6,3.45A13.24,13.24,0,0,1,848.43,248.13Z"/><path class="cls-10" d="M883.56,268.42c0-3.82,2.68-5.37,6-3.46a13.23,13.23,0,0,1,6,10.37c0,3.82-2.67,5.36-6,3.46A13.26,13.26,0,0,1,883.56,268.42Z"/><path class="cls-10" d="M918.69,288.69c0-3.81,2.68-5.36,6-3.45a13.25,13.25,0,0,1,6,10.37c0,3.82-2.69,5.36-6,3.45A13.23,13.23,0,0,1,918.69,288.69Z"/><path class="cls-10" d="M953.81,309c0-3.82,2.69-5.37,6-3.46a13.24,13.24,0,0,1,6,10.37c0,3.82-2.68,5.37-6,3.46A13.25,13.25,0,0,1,953.81,309Z"/><path class="cls-29" d="M1139,612.2,814.14,424.64c-17.09-9.86-30.94-36.32-30.94-59.1V351.71c0-22.78,13.85-33.25,30.94-23.38L1139,515.89c17.08,9.85,30.92,36.32,30.92,59.1v13.83C1169.92,611.59,1156.08,622.06,1139,612.2Z"/><path class="cls-30" d="M1365.49,983.15l-78.78-45.49a32,32,0,0,0-15.67-3.74H1203.7v116.56H1271a32.13,32.13,0,0,0,15.67-3.74l78.78-45.49c4.33-2.5,6.49-5.78,6.49-9S1369.82,985.65,1365.49,983.15Z"/><path class="cls-5" d="M1187,1014.1l-83.85-48.43c-4.62-2.66-6.93-6.15-6.93-9.63s2.31-7,6.93-9.64L1187,898c4.61-2.66,10.65-4,16.7-4a34.09,34.09,0,0,1,16.68,4l83.86,48.42c4.61,2.66,6.92,6.14,6.92,9.64s-2.31,7-6.92,9.63l-83.86,48.43a37,37,0,0,1-33.38,0Z"/><path class="cls-31" d="M1304.24,965.67l-83.86,48.43a37,37,0,0,1-33.38,0l-83.85-48.43c-4.62-2.66-6.93-6.15-6.93-9.63v32.39c0,3.5,2.31,7,6.93,9.64l83.85,48.42c4.61,2.66,10.65,4,16.7,4a34.09,34.09,0,0,0,16.68-4l83.86-48.42c4.61-2.66,6.92-6.14,6.92-9.64V956C1311.16,959.52,1308.85,963,1304.24,965.67Z"/><path class="cls-32" d="M1240.29,943.58a44.08,44.08,0,0,1-6.94,2.89q-3.06,1-12.56,4-7.44,2.32-11.19,3.84t-18.92,8.37l-3.35-1.94q9.54-6.88,12.55-9.25a75.38,75.38,0,0,0,6.88-6.3q6.42-6.53,9.38-9.32A28,28,0,0,1,1221,932a22.16,22.16,0,0,1,11.79-3.36,20.07,20.07,0,0,1,9.52,2.41q4,2.3,4.21,5.54T1240.29,943.58Zm-60.35,34.84a21.65,21.65,0,0,1-19.66,0c-2.73-1.57-4.09-3.47-4.09-5.67s1.36-4.11,4.09-5.68a21.65,21.65,0,0,1,19.66,0c2.73,1.57,4.09,3.47,4.09,5.68S1182.67,976.85,1179.94,978.42Z"/><path class="cls-33" d="M1550.79,812.84c-20.35-11.76-47.41-17.18-74-16.38h-41.67v6.82a110,110,0,0,0-22.05,9.56c-37.89,22-37.67,57.74.46,79.77a111.23,111.23,0,0,0,21.59,9.35v7.13h50c24-.4,47.84-5.86,66.13-16.47C1589.14,870.58,1588.94,834.87,1550.79,812.84Z"/><path class="cls-34" d="M1370.62,892.64c-19.19-11.08-28.8-25.63-28.74-40.16l.08-33.12c0,14.53,9.54,29.07,28.73,40.17,38.17,22,99.81,22,137.71,0,18.84-11,28.27-25.27,28.31-39.61l-.09,33.12c0,14.33-9.47,28.64-28.3,39.59C1470.43,914.68,1408.76,914.68,1370.62,892.64Z"/><path class="cls-35" d="M1370.69,859.53c-38.13-22-38.35-57.74-.45-79.75s99.57-22,137.72,0,38.35,57.73.44,79.77S1408.86,881.56,1370.69,859.53Z"/><polygon class="cls-10" points="1489.29 815.11 1417.23 818.77 1419.47 802.58 1399.56 802.58 1394.15 832.11 1489.29 826.61 1489.29 815.11"/><rect class="cls-36" x="557.94" y="1006.67" width="262.77" height="48.3"/><rect class="cls-37" x="440.33" y="936.99" width="262.74" height="48.28"/><path class="cls-38" d="M410.17,970.38c0-37.93,24.05-39,24.05-39s13,0,34.17-8.78c20.87-8.66,50.28-5.32,33.84,25a7.71,7.71,0,0,1-.56,1.11,14.83,14.83,0,0,1-5.33,4.69L443.8,984.19C435.78,988.75,410.36,978.19,410.17,970.38Z"/><path class="cls-39" d="M410.31,967c.47,7.77,25.55,18.15,33.49,13.6l52.54-30.79a49.9,49.9,0,0,0,7.4-5.4c-.47,1-.9,2-1.51,3.17a7.71,7.71,0,0,1-.56,1.11,14.83,14.83,0,0,1-5.33,4.69L443.8,984.19c-7.49,4.28-30.29-4.73-33.29-12.31a8.46,8.46,0,0,1-.25-1.53A23.42,23.42,0,0,1,410.31,967Z"/><path class="cls-40" d="M420,926.35c6.2,0,28,5.55,28,5.55a12,12,0,0,0,1.95,5.64,8.89,8.89,0,0,1,.61.74c4.3,3,8.67,7.71-1.54,14.12-8.37,5.24-15.15,1.91-18.36-1.31a16.7,16.7,0,0,0-5.94-6.73c-2.77-1.59-4.45-2.33-5.67-2.38,0-.17,0-.53,0-.53S417.36,926.35,420,926.35Z"/><path class="cls-3" d="M419.55,555.38c23.77.44,83.13,1.51,106.88,1.92-8.84,71.4-26.63,136.26-38.5,205.42-12.76,67.2-27.13,114.44-39.67,170.36-4.59,10.41-25.6,6.48-29.86-3.55-3.32-51.51-7.15-114.25,8.12-173.68C424,691.79,418.06,620.09,419.55,555.38Z"/><path class="cls-41" d="M529.94,1040.09c0-37.94,24-39,24-39s13,0,34.17-8.77c20.86-8.68,50.27-5.33,33.84,25a7.66,7.66,0,0,1-.58,1.14,14.51,14.51,0,0,1-5.32,4.67l-52.52,30.81C555.56,1058.45,530.12,1047.9,529.94,1040.09Z"/><path class="cls-39" d="M530.06,1036.68c.46,7.78,25.57,18.16,33.51,13.62l52.52-30.79a50.83,50.83,0,0,0,7.41-5.41c-.5,1-.9,2-1.51,3.16a7.66,7.66,0,0,1-.58,1.14,14.51,14.51,0,0,1-5.32,4.67l-52.52,30.81c-7.5,4.3-30.3-4.71-33.3-12.27a6.53,6.53,0,0,1-.23-1.56A25.25,25.25,0,0,1,530.06,1036.68Z"/><path class="cls-40" d="M539.72,996.05c6.17,0,28,5.54,28,5.54a12.51,12.51,0,0,0,1.93,5.66c.23.25.42.49.62.73,4.31,3,8.69,7.71-1.53,14.12-8.34,5.25-15.12,1.92-18.36-1.29a16.89,16.89,0,0,0-5.92-6.74c-2.78-1.59-4.46-2.31-5.68-2.39a4.45,4.45,0,0,0-.06-.51S537.11,996.05,539.72,996.05Z"/><path class="cls-20" d="M494.93,725.17c-6.5-30.69-81.4-34.49-76.48-155.19C442,566.52,560.51,622.15,584,618.69c2.94,71.86-4,138.77-4.45,208.91-1.59,68.39-8.06,117.33-11.3,174.56-2.83,11-24.19,10.58-30,1.39-11.69-50.28-25.71-111.58-20.35-172.7C510.88,797,502.54,761.13,494.93,725.17Z"/><path class="cls-34" d="M472.66,335.62C389,391.5,379,502.5,424.26,572.92,424.26,572.92,414.54,416.86,472.66,335.62Z"/><path class="cls-42" d="M576.18,331.76c-.55-6.49,1.88-16-2.42-20.72s-13.86-9.73-13.86-9.73c-4.86,2.62-20.39,14.23-20.39,14.23,2,5.61,5.7,17.23,15.58,24.43C560.68,337.58,576.18,331.76,576.18,331.76Z"/><path class="cls-34" d="M653.91,496.22C645.89,433,598.24,370.8,578.36,331a245.1,245.1,0,0,0-26.21,10.27c7.29,25.86,60.18,153.08,60.18,153.08Z"/><path class="cls-43" d="M468.83,638.4C519.73,667,573,667,591.16,631.91c-6.8-65.39-13.17-118.6,0-181.29-3.87-34.6-6.6-39.8-2.17-60-1.56-6.78-22.4-21.23-37.56-35.08-16.39-14.94-27.45-29.18-35.91-30.9-69.61-14.22-103.43,109.82-97.6,242.08C423.25,601.88,443.77,624.35,468.83,638.4Z"/><path class="cls-40" d="M476.88,332.54c15.09-10.93,13.89-33.49,12.62-48.47a73.48,73.48,0,0,1-2.82-25.87c2.23-33,25.18-60.1,50.8-56.58,51.68,7.06,40.59,33.77,38.36,66.76C573.78,299,558.48,319.06,535.07,321c-.35,5,1.71,20.29,8,26.64-17,10.16-41.8,5.38-51.61,1C481.07,343.9,469.79,339.86,476.88,332.54Z"/><path class="cls-44" d="M558.12,185.5c-1.22-4.13-9.12-6.83-36,3.51l-6.93,2.71c-49.67,21.51-37.67,78.79-30.25,94,2.63,5.39,4.46,9.72,3.92,18,19.51-.8,25.7,10.19,38.19-.76,9-7.84,22.39-17,24.65-20.89s1.84-6.36,1.84-9.47c0-27.44,12.71-10.69,12.31-4.37,5.2-2.53,4.85-13.57,4.51-25.84h0C612.58,211,589.93,189.25,558.12,185.5Z"/><path class="cls-45" d="M650.33,484.65c-17.79-35-30.46-49.53-62-95.57-7.31-10.82-30.94-6.72-42.58,8.64-15.75,20.76-9,51-.11,63.28,22.87,23.65,39.09,33.38,59.26,49.79C638,537.72,664.22,512,650.33,484.65Z"/><path class="cls-46" d="M209.7,639.06c6,3.44,13.86,5.33,22.27,5.33a47.82,47.82,0,0,0,19.09-3.73c-.71-.35-1.59-.86-2.86-1.59-12.29-7.09-12.29-18.63,0-25.72a32.72,32.72,0,0,1,3.09-1.5c-12.35-5.54-30.24-5.06-41.59,1.49C197.42,620.44,197.42,632,209.7,639.06Z"/><path class="cls-47" d="M78.15,723.1H98l-9.91-5.72Zm130-20-18.31-10.57,13.88-8-10.13-5.85,39.61-22.87c-.42,0-.83,0-1.25,0a79.57,79.57,0,0,1-28.6-5L156.27,678l-.88.81,9.87,5.69-13.88,8,18.31,10.57-14,8.08-28.44-16.42-11.2,6.46,10.13,5.85-14,8.08,11.66,6.74-2.34,1.35h0L109.85,730h38.5l14-8.08h0l-11.66-6.73,6.89-4h36.62l14-8.08Z"/><path class="cls-48" d="M306.74,605.27c-15-8.66-37-10.82-55.51-6.51a62.61,62.61,0,0,1,17,6.5c9.69,5.6,15,13,15,20.94s-5.34,15.35-15,20.95c-9.3,5.36-21.55,8.38-34.64,8.62l-.09.05H272l.08,0c13.09-.24,25.34-3.26,34.64-8.63,9.69-5.59,15-13,15-20.94S316.43,610.86,306.74,605.27Z"/><polygon class="cls-49" points="98.19 723.23 98.2 723.23 98.19 723.23 98.19 723.23"/><polygon class="cls-50" points="72.93 694.33 86.92 702.41 86.92 680.19 72.93 672.11 72.93 694.33"/><polygon class="cls-50" points="64.37 703.7 78.36 711.78 78.36 689.55 64.37 681.48 64.37 703.7"/><path class="cls-3" d="M180.81,602.73h-.09V625.5l8.68-5C183.2,615.15,180.36,608.91,180.81,602.73Z"/><path class="cls-3" d="M207.07,615.1a26.72,26.72,0,0,1,2.63-1.76c12.29-7.09,32.27-7.09,44.55,0a26.68,26.68,0,0,1,2.63,1.75c4.26-3.16,6.6-7,6.6-11.11,0-4.86-3.28-9.42-9.23-12.86C242,584,222,584,209.7,591.12,198.38,597.66,197.52,608,207.07,615.1Z"/><path class="cls-3" d="M268.25,624.92c-9.69,5.6-22.57,8.68-36.27,8.68a79.57,79.57,0,0,1-28.6-5V650.8a79.78,79.78,0,0,0,28.6,5c13.7,0,26.58-3.08,36.27-8.67s15-13,15-20.94V604C283.27,611.89,277.94,619.33,268.25,624.92Z"/><polygon class="cls-50" points="155.13 678.65 203.38 650.8 203.38 628.57 155.13 656.43 155.13 678.65"/><polygon class="cls-50" points="151.38 692.52 165.26 684.5 165.26 662.28 151.38 670.29 151.38 692.52"/><polygon class="cls-3" points="155.69 711.17 169.69 703.09 169.69 680.87 155.69 688.95 155.69 711.17"/><polygon class="cls-3" points="116.05 701.22 127.25 694.75 127.25 672.53 116.05 678.99 116.05 701.22"/><polygon class="cls-3" points="112.19 715.14 126.18 707.06 126.18 684.84 112.19 692.92 112.19 715.14"/><polygon class="cls-3" points="109.85 729.96 123.85 721.88 123.85 699.66 109.85 707.74 109.85 729.96"/><polygon class="cls-3" points="78.15 723.1 88.06 717.38 88.06 695.15 78.15 700.88 78.15 723.1"/><polygon class="cls-50" points="88.06 717.38 109.85 729.96 109.85 707.74 88.06 695.15 88.06 717.38"/><polygon class="cls-50" points="127.25 694.75 155.69 711.17 155.69 688.95 127.25 672.53 127.25 694.75"/><polygon class="cls-50" points="64.16 715.02 78.15 723.1 78.15 700.88 64.16 692.79 64.16 715.02"/><path class="cls-8" d="M189.4,620.49l-88.95,51.35L86.92,664l-14,8.08,3.83,2.21-12.39,7.16,9.69,5.59-9.91,5.73,14,8.08,9.91-5.73,21.79,12.59,14-8.08-11.66-6.74,14-8.08L116.05,679l11.2-6.46L155.69,689l14-8.08L151.38,670.3l13.88-8-10.13-5.85,48.25-27.86a79.57,79.57,0,0,0,28.6,5c13.7,0,26.58-3.08,36.27-8.68s15-13,15-20.94-5.34-15.34-15-20.94c-20-11.55-52.54-11.54-72.54,0C178.1,593.21,176,609,189.4,620.49Zm64.85-29.37c5.95,3.44,9.23,8,9.23,12.86s-3.28,9.43-9.23,12.86-13.86,5.33-22.28,5.33-16.32-1.89-22.27-5.33c-12.28-7.09-12.28-18.62,0-25.72S242,584,254.25,591.12Z"/></g></g></svg>