<?xml version="1.0" encoding="utf-8"?>
<!-- Generator: Adobe Illustrator 21.0.0, SVG Export Plug-In . SVG Version: 6.00 Build 0)  -->
<svg version="1.1" id="Livello_1" xmlns="http://www.w3.org/2000/svg" xmlns:xlink="http://www.w3.org/1999/xlink" x="0px" y="0px"
	 viewBox="0 0 40 40" style="enable-background:new 0 0 40 40;" xml:space="preserve">
<style type="text/css">
	.st0{fill:#5E5E5E;}
</style>
<g id="Livello_1_1_">
</g>
<g>
	<path class="st0" d="M32.7,9.8H7.3c-0.3,0-0.5,0.2-0.5,0.5v17.1c0,0.3,0.2,0.5,0.5,0.5h10c0,0.6-0.1,1.8-0.1,2.2
		c0,0.3-0.1,0.6-0.4,0.8c-0.1,0.1-0.3,0.2-0.5,0.3c-0.1,0.1-0.4,0.1-0.4,0.3c0,0.1,0.1,0.1,0.2,0.1h7.6c0.1,0,0.2-0.1,0.2-0.1
		c0-0.2-0.2-0.3-0.4-0.3c-0.2-0.1-0.3-0.2-0.5-0.3c-0.2-0.2-0.3-0.5-0.4-0.8c-0.1-0.4-0.1-1.6-0.1-2.2h10c0.3,0,0.5-0.2,0.5-0.5
		V10.3C33.2,10,32.9,9.8,32.7,9.8z M32.1,24.5H7.9V10.9h24.2V24.5z"/>
</g>
</svg>
