<?xml version="1.0" encoding="utf-8"?>
<!-- Generator: Adobe Illustrator 21.0.0, SVG Export Plug-In . SVG Version: 6.00 Build 0)  -->
<svg version="1.1" id="Livello_1" xmlns="http://www.w3.org/2000/svg" xmlns:xlink="http://www.w3.org/1999/xlink" x="0px" y="0px"
	 viewBox="0 0 40 40" style="enable-background:new 0 0 40 40;" xml:space="preserve">
<style type="text/css">
	.st0{fill:#5E5E5E;}
</style>
<g id="Livello_8">
	<path class="st0" d="M26.4,28.4H13.7V11.6h12.7V28.4L26.4,28.4z M19.5,29.3c0-0.3,0.2-0.5,0.5-0.5c0.3,0,0.5,0.2,0.5,0.5
		c0,0.3-0.2,0.5-0.5,0.5C19.7,29.9,19.5,29.7,19.5,29.3 M28,10.5L28,10.5L28,10.5c0-0.5-0.4-0.8-0.8-0.8l0,0l0,0H12.9l0,0l0,0
		c-0.5,0-0.8,0.4-0.8,0.8l0,0l0,0v18.9l0,0l0,0c0,0.4,0.4,0.8,0.8,0.8l0,0l0,0h14.4l0,0l0,0c0.4,0,0.8-0.4,0.8-0.8l0,0l0,0L28,10.5
		L28,10.5z"/>
</g>
<g id="Livello_1_1_">
</g>
</svg>
