<svg xmlns="http://www.w3.org/2000/svg" width="35" height="44" viewBox="0 0 35 44">
    <g fill="none" fill-rule="evenodd">
        <g fill="#3395FF">
            <g>
                <path d="M10.08 26.81c.057-.01.12-.002.21-.002.086.511.322.919.595 1.308.468.67 1.022 1.262 1.6 1.834 1.418 1.404 2.956 2.668 4.533 3.884.048.034.1.065.16.106.055-.034.108-.06.155-.095 1.542-1.183 3.043-2.413 4.427-3.779.464-.46.904-.95 1.332-1.443.215-.245.394-.523.577-.794.203-.303.345-.64.407-1.007.262-.047.498.025.732.062 3.851.611 7.128 3.173 8.654 6.762.452 1.068.732 2.18.843 3.337.072.764.076 1.526-.016 2.288-.063.533-.183 1.052-.382 1.55-.392.974-1.056 1.704-1.983 2.193-.639.338-1.324.54-2.028.676-.933.18-1.876.261-2.82.285-1.057.023-2.113.025-3.169.025-4.284 0-8.566-.002-12.85-.005-1.02 0-2.038-.002-3.057-.004-.887-.005-1.772-.053-2.652-.16-.676-.086-1.343-.208-1.987-.428-.127-.044-.252-.09-.375-.14-1.507-.59-2.422-1.688-2.783-3.258-.167-.738-.223-1.486-.197-2.241.053-1.508.375-2.955.993-4.336 1.503-3.339 4.567-5.777 8.147-6.474.31-.058.62-.1.934-.144zM15.662.326c1.008-.433 2.034-.436 3.041 0 3.654 1.572 7.302 3.156 10.951 4.738.123.05.248.104.36.176.099.067.192.15.263.245.116.15.114.322 0 .473-.071.092-.166.178-.266.243-.12.079-.257.136-.389.194l-3.34 1.448c-.117.053-.236.11-.363.169v1.803l-.002 1.455c0 .197.035.38.104.565.507 1.325.702 2.698.597 4.108-.08 1.105-.305 2.184-.636 3.242-.651 2.08-1.614 4-2.978 5.711-.593.741-1.256 1.415-2.018 1.985-.516.387-1.07.715-1.665.96-1.42.578-2.836.58-4.254.006-.794-.322-1.5-.788-2.151-1.341-.885-.755-1.628-1.633-2.274-2.594-1.334-1.99-2.24-4.16-2.696-6.512-.204-1.063-.285-2.14-.162-3.221.09-.8.271-1.577.563-2.33.058-.148.095-.294.095-.456-.005-1.068-.002-2.138-.002-3.205 0-.049-.007-.095-.012-.165-.063-.037-.13-.088-.204-.118-.824-.359-1.646-.715-2.47-1.072-.054-.023-.112-.042-.18-.065-.076.176.029.317.012.454.658.266.827.945.11 1.417.02.315.034.642.057.968.035.47.074.943.11 1.413l.323 4.648c.035.505-.018.993-.197 1.468-.097.26-.176.528-.266.792-.025.081-.05.162-.083.24-.03.08-.063.175-.16.18-.102.006-.146-.082-.171-.163-.195-.623-.477-1.223-.55-1.883-.015-.166-.03-.338-.015-.507.101-1.463.21-2.927.317-4.39.06-.813.113-1.624.169-2.434l.003-.11v-.242c-.056-.04-.126-.084-.19-.14-.385-.33-.343-.866.087-1.136.06-.04.128-.068.204-.105.063-.166.056-.345.076-.54-.106-.05-.201-.101-.298-.145-.2-.088-.403-.172-.6-.262-.155-.072-.301-.162-.405-.303-.135-.18-.14-.36.002-.533.065-.083.155-.157.245-.215.11-.07.234-.123.357-.176C8.361 3.482 12.008 1.9 15.662.326z" transform="translate(-50 -28) translate(50 28)"/>
            </g>
        </g>
    </g>
</svg>
