<svg id="Layer_1" data-name="Layer 1" xmlns="http://www.w3.org/2000/svg" viewBox="0 0 20 14"><defs><style>.cls-1{isolation:isolate;}.cls-2{fill:#fe9624;}</style></defs><g class="cls-1"><g class="cls-1"><path class="cls-2" d="M10,.75a9.89,9.89,0,0,1,3.92.8,9.67,9.67,0,0,1,3.17,2.2A9.84,9.84,0,0,1,19.18,7a9.7,9.7,0,0,1-2.09,3.25,9.79,9.79,0,0,1-3.17,2.19,10,10,0,0,1-7.84,0,9.79,9.79,0,0,1-3.17-2.19A9.7,9.7,0,0,1,.82,7,9.84,9.84,0,0,1,2.91,3.75a9.67,9.67,0,0,1,3.17-2.2A9.89,9.89,0,0,1,10,.75Zm0,10.44A4.17,4.17,0,0,0,14.18,7,4.19,4.19,0,0,0,7.9,3.39,4.17,4.17,0,0,0,5.82,7,4.17,4.17,0,0,0,10,11.19Zm0-6.68a2.39,2.39,0,0,1,1.24.34,2.54,2.54,0,0,1,.92.92,2.43,2.43,0,0,1,0,2.48,2.54,2.54,0,0,1-.92.92,2.43,2.43,0,0,1-2.48,0,2.54,2.54,0,0,1-.92-.92,2.43,2.43,0,0,1,0-2.48,2.54,2.54,0,0,1,.92-.92A2.39,2.39,0,0,1,10,4.51Z"/></g></g></svg>